<?xml version="1.0" encoding="utf-8" standalone="no"?>
<!DOCTYPE svg PUBLIC "-//W3C//DTD SVG 1.1//EN"
  "http://www.w3.org/Graphics/SVG/1.1/DTD/svg11.dtd">
<!-- Created with matplotlib (https://matplotlib.org/) -->
<svg height="607.792456pt" version="1.1" viewBox="0 0 1640.470812 607.792456" width="1640.470812pt" xmlns="http://www.w3.org/2000/svg" xmlns:xlink="http://www.w3.org/1999/xlink">
 <metadata>
  <rdf:RDF xmlns:cc="http://creativecommons.org/ns#" xmlns:dc="http://purl.org/dc/elements/1.1/" xmlns:rdf="http://www.w3.org/1999/02/22-rdf-syntax-ns#">
   <cc:Work>
    <dc:type rdf:resource="http://purl.org/dc/dcmitype/StillImage"/>
    <dc:date>2021-07-21T11:02:31.375797</dc:date>
    <dc:format>image/svg+xml</dc:format>
    <dc:creator>
     <cc:Agent>
      <dc:title>Matplotlib v3.3.4, https://matplotlib.org/</dc:title>
     </cc:Agent>
    </dc:creator>
   </cc:Work>
  </rdf:RDF>
 </metadata>
 <defs>
  <style type="text/css">*{stroke-linecap:butt;stroke-linejoin:round;}</style>
 </defs>
 <g id="figure_1">
  <g id="patch_1">
   <path d="M 0 607.792456 
L 1640.470812 607.792456 
L 1640.470812 0 
L 0 0 
z
" style="fill:#ffffff;"/>
  </g>
  <g id="axes_1">
   <g id="patch_2">
    <path d="M 74.102312 520.704 
L 1633.270812 520.704 
L 1633.270812 7.2 
L 74.102312 7.2 
z
" style="fill:#ffffff;"/>
   </g>
   <g id="matplotlib.axis_1">
    <g id="xtick_1">
     <g id="text_1">
      <!-- PBSeT -->
      <g style="fill:#262626;" transform="translate(73.479716 548.663828)scale(0.209 -0.209)">
       <defs>
        <path d="M 7.71875 0 
L 7.71875 71.578125 
L 34.71875 71.578125 
Q 41.84375 71.578125 45.609375 70.90625 
Q 50.875 70.015625 54.4375 67.546875 
Q 58.015625 65.09375 60.1875 60.640625 
Q 62.359375 56.203125 62.359375 50.875 
Q 62.359375 41.75 56.546875 35.421875 
Q 50.734375 29.109375 35.546875 29.109375 
L 17.1875 29.109375 
L 17.1875 0 
z
M 17.1875 37.546875 
L 35.6875 37.546875 
Q 44.875 37.546875 48.734375 40.96875 
Q 52.59375 44.390625 52.59375 50.59375 
Q 52.59375 55.078125 50.3125 58.265625 
Q 48.046875 61.46875 44.34375 62.5 
Q 41.9375 63.140625 35.5 63.140625 
L 17.1875 63.140625 
z
" id="ArialMT-80"/>
        <path d="M 7.328125 0 
L 7.328125 71.578125 
L 34.1875 71.578125 
Q 42.390625 71.578125 47.34375 69.40625 
Q 52.296875 67.234375 55.09375 62.71875 
Q 57.90625 58.203125 57.90625 53.265625 
Q 57.90625 48.6875 55.421875 44.625 
Q 52.9375 40.578125 47.90625 38.09375 
Q 54.390625 36.1875 57.875 31.59375 
Q 61.375 27 61.375 20.75 
Q 61.375 15.71875 59.25 11.390625 
Q 57.125 7.078125 54 4.734375 
Q 50.875 2.390625 46.15625 1.1875 
Q 41.453125 0 34.625 0 
z
M 16.796875 41.5 
L 32.28125 41.5 
Q 38.578125 41.5 41.3125 42.328125 
Q 44.921875 43.40625 46.75 45.890625 
Q 48.578125 48.390625 48.578125 52.15625 
Q 48.578125 55.71875 46.875 58.421875 
Q 45.171875 61.140625 41.984375 62.140625 
Q 38.8125 63.140625 31.109375 63.140625 
L 16.796875 63.140625 
z
M 16.796875 8.453125 
L 34.625 8.453125 
Q 39.203125 8.453125 41.0625 8.796875 
Q 44.34375 9.375 46.53125 10.734375 
Q 48.734375 12.109375 50.140625 14.71875 
Q 51.5625 17.328125 51.5625 20.75 
Q 51.5625 24.75 49.515625 27.703125 
Q 47.46875 30.671875 43.828125 31.859375 
Q 40.1875 33.0625 33.34375 33.0625 
L 16.796875 33.0625 
z
" id="ArialMT-66"/>
        <path d="M 4.5 23 
L 13.421875 23.78125 
Q 14.0625 18.40625 16.375 14.96875 
Q 18.703125 11.53125 23.578125 9.40625 
Q 28.46875 7.28125 34.578125 7.28125 
Q 39.984375 7.28125 44.140625 8.890625 
Q 48.296875 10.5 50.3125 13.296875 
Q 52.34375 16.109375 52.34375 19.4375 
Q 52.34375 22.796875 50.390625 25.3125 
Q 48.4375 27.828125 43.953125 29.546875 
Q 41.0625 30.671875 31.203125 33.03125 
Q 21.34375 35.40625 17.390625 37.5 
Q 12.25 40.1875 9.734375 44.15625 
Q 7.234375 48.140625 7.234375 53.078125 
Q 7.234375 58.5 10.296875 63.203125 
Q 13.375 67.921875 19.28125 70.359375 
Q 25.203125 72.796875 32.421875 72.796875 
Q 40.375 72.796875 46.453125 70.234375 
Q 52.546875 67.671875 55.8125 62.6875 
Q 59.078125 57.71875 59.328125 51.421875 
L 50.25 50.734375 
Q 49.515625 57.515625 45.28125 60.984375 
Q 41.0625 64.453125 32.8125 64.453125 
Q 24.21875 64.453125 20.28125 61.296875 
Q 16.359375 58.15625 16.359375 53.71875 
Q 16.359375 49.859375 19.140625 47.359375 
Q 21.875 44.875 33.421875 42.265625 
Q 44.96875 39.65625 49.265625 37.703125 
Q 55.515625 34.8125 58.484375 30.390625 
Q 61.46875 25.984375 61.46875 20.21875 
Q 61.46875 14.5 58.203125 9.4375 
Q 54.9375 4.390625 48.796875 1.578125 
Q 42.671875 -1.21875 35.015625 -1.21875 
Q 25.296875 -1.21875 18.71875 1.609375 
Q 12.15625 4.4375 8.421875 10.125 
Q 4.6875 15.828125 4.5 23 
z
" id="ArialMT-83"/>
        <path d="M 42.09375 16.703125 
L 51.171875 15.578125 
Q 49.03125 7.625 43.21875 3.21875 
Q 37.40625 -1.171875 28.375 -1.171875 
Q 17 -1.171875 10.328125 5.828125 
Q 3.65625 12.84375 3.65625 25.484375 
Q 3.65625 38.578125 10.390625 45.796875 
Q 17.140625 53.03125 27.875 53.03125 
Q 38.28125 53.03125 44.875 45.953125 
Q 51.46875 38.875 51.46875 26.03125 
Q 51.46875 25.25 51.421875 23.6875 
L 12.75 23.6875 
Q 13.234375 15.140625 17.578125 10.59375 
Q 21.921875 6.0625 28.421875 6.0625 
Q 33.25 6.0625 36.671875 8.59375 
Q 40.09375 11.140625 42.09375 16.703125 
z
M 13.234375 30.90625 
L 42.1875 30.90625 
Q 41.609375 37.453125 38.875 40.71875 
Q 34.671875 45.796875 27.984375 45.796875 
Q 21.921875 45.796875 17.796875 41.75 
Q 13.671875 37.703125 13.234375 30.90625 
z
" id="ArialMT-101"/>
        <path d="M 25.921875 0 
L 25.921875 63.140625 
L 2.34375 63.140625 
L 2.34375 71.578125 
L 59.078125 71.578125 
L 59.078125 63.140625 
L 35.40625 63.140625 
L 35.40625 0 
z
" id="ArialMT-84"/>
       </defs>
       <use xlink:href="#ArialMT-80"/>
       <use x="66.699219" xlink:href="#ArialMT-66"/>
       <use x="133.398438" xlink:href="#ArialMT-83"/>
       <use x="200.097656" xlink:href="#ArialMT-101"/>
       <use x="255.712891" xlink:href="#ArialMT-84"/>
      </g>
     </g>
    </g>
    <g id="xtick_2">
     <g id="text_2">
      <!-- PBSe -->
      <g style="fill:#262626;" transform="translate(144.827734 548.663828)scale(0.209 -0.209)">
       <use xlink:href="#ArialMT-80"/>
       <use x="66.699219" xlink:href="#ArialMT-66"/>
       <use x="133.398438" xlink:href="#ArialMT-83"/>
       <use x="200.097656" xlink:href="#ArialMT-101"/>
      </g>
     </g>
    </g>
    <g id="xtick_3">
     <g id="text_3">
      <!-- PEA -->
      <g style="fill:#262626;" transform="translate(215.604268 548.663828)scale(0.209 -0.209)">
       <defs>
        <path d="M 7.90625 0 
L 7.90625 71.578125 
L 59.671875 71.578125 
L 59.671875 63.140625 
L 17.390625 63.140625 
L 17.390625 41.21875 
L 56.984375 41.21875 
L 56.984375 32.8125 
L 17.390625 32.8125 
L 17.390625 8.453125 
L 61.328125 8.453125 
L 61.328125 0 
z
" id="ArialMT-69"/>
        <path d="M -0.140625 0 
L 27.34375 71.578125 
L 37.546875 71.578125 
L 66.84375 0 
L 56.0625 0 
L 47.703125 21.6875 
L 17.78125 21.6875 
L 9.90625 0 
z
M 20.515625 29.390625 
L 44.78125 29.390625 
L 37.3125 49.21875 
Q 33.890625 58.25 32.234375 64.0625 
Q 30.859375 57.171875 28.375 50.390625 
z
" id="ArialMT-65"/>
       </defs>
       <use xlink:href="#ArialMT-80"/>
       <use x="66.699219" xlink:href="#ArialMT-69"/>
       <use x="133.398438" xlink:href="#ArialMT-65"/>
      </g>
     </g>
    </g>
    <g id="xtick_4">
     <g id="text_4">
      <!-- PHA -->
      <g style="fill:#262626;" transform="translate(279.99324 548.663828)scale(0.209 -0.209)">
       <defs>
        <path d="M 8.015625 0 
L 8.015625 71.578125 
L 17.484375 71.578125 
L 17.484375 42.1875 
L 54.6875 42.1875 
L 54.6875 71.578125 
L 64.15625 71.578125 
L 64.15625 0 
L 54.6875 0 
L 54.6875 33.734375 
L 17.484375 33.734375 
L 17.484375 0 
z
" id="ArialMT-72"/>
       </defs>
       <use xlink:href="#ArialMT-80"/>
       <use x="66.699219" xlink:href="#ArialMT-72"/>
       <use x="138.916016" xlink:href="#ArialMT-65"/>
      </g>
     </g>
    </g>
    <g id="xtick_5">
     <g id="text_5">
      <!-- PA -->
      <g style="fill:#262626;" transform="translate(353.276141 548.663828)scale(0.209 -0.209)">
       <use xlink:href="#ArialMT-80"/>
       <use x="59.324219" xlink:href="#ArialMT-65"/>
      </g>
     </g>
    </g>
    <g id="xtick_6">
     <g id="text_6">
      <!-- PHBV -->
      <g style="fill:#262626;" transform="translate(402.953471 548.663828)scale(0.209 -0.209)">
       <defs>
        <path d="M 28.171875 0 
L 0.4375 71.578125 
L 10.6875 71.578125 
L 29.296875 19.578125 
Q 31.546875 13.328125 33.0625 7.859375 
Q 34.71875 13.71875 36.921875 19.578125 
L 56.25 71.578125 
L 65.921875 71.578125 
L 37.890625 0 
z
" id="ArialMT-86"/>
       </defs>
       <use xlink:href="#ArialMT-80"/>
       <use x="66.699219" xlink:href="#ArialMT-72"/>
       <use x="138.916016" xlink:href="#ArialMT-66"/>
       <use x="205.615234" xlink:href="#ArialMT-86"/>
      </g>
     </g>
    </g>
    <g id="xtick_7">
     <g id="text_7">
      <!-- Starch -->
      <g style="fill:#262626;" transform="translate(466.176615 548.663828)scale(0.209 -0.209)">
       <defs>
        <path d="M 25.78125 7.859375 
L 27.046875 0.09375 
Q 23.34375 -0.6875 20.40625 -0.6875 
Q 15.625 -0.6875 12.984375 0.828125 
Q 10.359375 2.34375 9.28125 4.8125 
Q 8.203125 7.28125 8.203125 15.1875 
L 8.203125 45.015625 
L 1.765625 45.015625 
L 1.765625 51.859375 
L 8.203125 51.859375 
L 8.203125 64.703125 
L 16.9375 69.96875 
L 16.9375 51.859375 
L 25.78125 51.859375 
L 25.78125 45.015625 
L 16.9375 45.015625 
L 16.9375 14.703125 
Q 16.9375 10.9375 17.40625 9.859375 
Q 17.875 8.796875 18.921875 8.15625 
Q 19.96875 7.515625 21.921875 7.515625 
Q 23.390625 7.515625 25.78125 7.859375 
z
" id="ArialMT-116"/>
        <path d="M 40.4375 6.390625 
Q 35.546875 2.25 31.03125 0.53125 
Q 26.515625 -1.171875 21.34375 -1.171875 
Q 12.796875 -1.171875 8.203125 3 
Q 3.609375 7.171875 3.609375 13.671875 
Q 3.609375 17.484375 5.34375 20.625 
Q 7.078125 23.78125 9.890625 25.6875 
Q 12.703125 27.59375 16.21875 28.5625 
Q 18.796875 29.25 24.03125 29.890625 
Q 34.671875 31.15625 39.703125 32.90625 
Q 39.75 34.71875 39.75 35.203125 
Q 39.75 40.578125 37.25 42.78125 
Q 33.890625 45.75 27.25 45.75 
Q 21.046875 45.75 18.09375 43.578125 
Q 15.140625 41.40625 13.71875 35.890625 
L 5.125 37.0625 
Q 6.296875 42.578125 8.984375 45.96875 
Q 11.671875 49.359375 16.75 51.1875 
Q 21.828125 53.03125 28.515625 53.03125 
Q 35.15625 53.03125 39.296875 51.46875 
Q 43.453125 49.90625 45.40625 47.53125 
Q 47.359375 45.171875 48.140625 41.546875 
Q 48.578125 39.3125 48.578125 33.453125 
L 48.578125 21.734375 
Q 48.578125 9.46875 49.140625 6.21875 
Q 49.703125 2.984375 51.375 0 
L 42.1875 0 
Q 40.828125 2.734375 40.4375 6.390625 
z
M 39.703125 26.03125 
Q 34.90625 24.078125 25.34375 22.703125 
Q 19.921875 21.921875 17.671875 20.9375 
Q 15.4375 19.96875 14.203125 18.09375 
Q 12.984375 16.21875 12.984375 13.921875 
Q 12.984375 10.40625 15.640625 8.0625 
Q 18.3125 5.71875 23.4375 5.71875 
Q 28.515625 5.71875 32.46875 7.9375 
Q 36.421875 10.15625 38.28125 14.015625 
Q 39.703125 17 39.703125 22.796875 
z
" id="ArialMT-97"/>
        <path d="M 6.5 0 
L 6.5 51.859375 
L 14.40625 51.859375 
L 14.40625 44 
Q 17.4375 49.515625 20 51.265625 
Q 22.5625 53.03125 25.640625 53.03125 
Q 30.078125 53.03125 34.671875 50.203125 
L 31.640625 42.046875 
Q 28.421875 43.953125 25.203125 43.953125 
Q 22.3125 43.953125 20.015625 42.21875 
Q 17.71875 40.484375 16.75 37.40625 
Q 15.28125 32.71875 15.28125 27.15625 
L 15.28125 0 
z
" id="ArialMT-114"/>
        <path d="M 40.4375 19 
L 49.078125 17.875 
Q 47.65625 8.9375 41.8125 3.875 
Q 35.984375 -1.171875 27.484375 -1.171875 
Q 16.84375 -1.171875 10.375 5.78125 
Q 3.90625 12.75 3.90625 25.734375 
Q 3.90625 34.125 6.6875 40.421875 
Q 9.46875 46.734375 15.15625 49.875 
Q 20.84375 53.03125 27.546875 53.03125 
Q 35.984375 53.03125 41.359375 48.75 
Q 46.734375 44.484375 48.25 36.625 
L 39.703125 35.296875 
Q 38.484375 40.53125 35.375 43.15625 
Q 32.28125 45.796875 27.875 45.796875 
Q 21.234375 45.796875 17.078125 41.03125 
Q 12.9375 36.28125 12.9375 25.984375 
Q 12.9375 15.53125 16.9375 10.796875 
Q 20.953125 6.0625 27.390625 6.0625 
Q 32.5625 6.0625 36.03125 9.234375 
Q 39.5 12.40625 40.4375 19 
z
" id="ArialMT-99"/>
        <path d="M 6.59375 0 
L 6.59375 71.578125 
L 15.375 71.578125 
L 15.375 45.90625 
Q 21.53125 53.03125 30.90625 53.03125 
Q 36.671875 53.03125 40.921875 50.75 
Q 45.171875 48.484375 47 44.484375 
Q 48.828125 40.484375 48.828125 32.859375 
L 48.828125 0 
L 40.046875 0 
L 40.046875 32.859375 
Q 40.046875 39.453125 37.1875 42.453125 
Q 34.328125 45.453125 29.109375 45.453125 
Q 25.203125 45.453125 21.75 43.421875 
Q 18.3125 41.40625 16.84375 37.9375 
Q 15.375 34.46875 15.375 28.375 
L 15.375 0 
z
" id="ArialMT-104"/>
       </defs>
       <use xlink:href="#ArialMT-83"/>
       <use x="66.699219" xlink:href="#ArialMT-116"/>
       <use x="94.482422" xlink:href="#ArialMT-97"/>
       <use x="150.097656" xlink:href="#ArialMT-114"/>
       <use x="183.398438" xlink:href="#ArialMT-99"/>
       <use x="233.398438" xlink:href="#ArialMT-104"/>
      </g>
      <!-- -blend -->
      <g style="fill:#262626;" transform="translate(467.331013 570.769497)scale(0.209 -0.209)">
       <defs>
        <path d="M 3.171875 21.484375 
L 3.171875 30.328125 
L 30.171875 30.328125 
L 30.171875 21.484375 
z
" id="ArialMT-45"/>
        <path d="M 14.703125 0 
L 6.546875 0 
L 6.546875 71.578125 
L 15.328125 71.578125 
L 15.328125 46.046875 
Q 20.90625 53.03125 29.546875 53.03125 
Q 34.328125 53.03125 38.59375 51.09375 
Q 42.875 49.171875 45.625 45.671875 
Q 48.390625 42.1875 49.953125 37.25 
Q 51.515625 32.328125 51.515625 26.703125 
Q 51.515625 13.375 44.921875 6.09375 
Q 38.328125 -1.171875 29.109375 -1.171875 
Q 19.921875 -1.171875 14.703125 6.5 
z
M 14.59375 26.3125 
Q 14.59375 17 17.140625 12.84375 
Q 21.296875 6.0625 28.375 6.0625 
Q 34.125 6.0625 38.328125 11.0625 
Q 42.53125 16.0625 42.53125 25.984375 
Q 42.53125 36.140625 38.5 40.96875 
Q 34.46875 45.796875 28.765625 45.796875 
Q 23 45.796875 18.796875 40.796875 
Q 14.59375 35.796875 14.59375 26.3125 
z
" id="ArialMT-98"/>
        <path d="M 6.390625 0 
L 6.390625 71.578125 
L 15.1875 71.578125 
L 15.1875 0 
z
" id="ArialMT-108"/>
        <path d="M 6.59375 0 
L 6.59375 51.859375 
L 14.5 51.859375 
L 14.5 44.484375 
Q 20.21875 53.03125 31 53.03125 
Q 35.6875 53.03125 39.625 51.34375 
Q 43.5625 49.65625 45.515625 46.921875 
Q 47.46875 44.1875 48.25 40.4375 
Q 48.734375 37.984375 48.734375 31.890625 
L 48.734375 0 
L 39.9375 0 
L 39.9375 31.546875 
Q 39.9375 36.921875 38.90625 39.578125 
Q 37.890625 42.234375 35.28125 43.8125 
Q 32.671875 45.40625 29.15625 45.40625 
Q 23.53125 45.40625 19.453125 41.84375 
Q 15.375 38.28125 15.375 28.328125 
L 15.375 0 
z
" id="ArialMT-110"/>
        <path d="M 40.234375 0 
L 40.234375 6.546875 
Q 35.296875 -1.171875 25.734375 -1.171875 
Q 19.53125 -1.171875 14.328125 2.25 
Q 9.125 5.671875 6.265625 11.796875 
Q 3.421875 17.921875 3.421875 25.875 
Q 3.421875 33.640625 6 39.96875 
Q 8.59375 46.296875 13.765625 49.65625 
Q 18.953125 53.03125 25.34375 53.03125 
Q 30.03125 53.03125 33.6875 51.046875 
Q 37.359375 49.078125 39.65625 45.90625 
L 39.65625 71.578125 
L 48.390625 71.578125 
L 48.390625 0 
z
M 12.453125 25.875 
Q 12.453125 15.921875 16.640625 10.984375 
Q 20.84375 6.0625 26.5625 6.0625 
Q 32.328125 6.0625 36.34375 10.765625 
Q 40.375 15.484375 40.375 25.140625 
Q 40.375 35.796875 36.265625 40.765625 
Q 32.171875 45.75 26.171875 45.75 
Q 20.3125 45.75 16.375 40.96875 
Q 12.453125 36.1875 12.453125 25.875 
z
" id="ArialMT-100"/>
       </defs>
       <use xlink:href="#ArialMT-45"/>
       <use x="33.300781" xlink:href="#ArialMT-98"/>
       <use x="88.916016" xlink:href="#ArialMT-108"/>
       <use x="111.132812" xlink:href="#ArialMT-101"/>
       <use x="166.748047" xlink:href="#ArialMT-110"/>
       <use x="222.363281" xlink:href="#ArialMT-100"/>
      </g>
     </g>
    </g>
    <g id="xtick_8">
     <g id="text_8">
      <!-- PBS -->
      <g style="fill:#262626;" transform="translate(540.431039 548.663828)scale(0.209 -0.209)">
       <use xlink:href="#ArialMT-80"/>
       <use x="66.699219" xlink:href="#ArialMT-66"/>
       <use x="133.398438" xlink:href="#ArialMT-83"/>
      </g>
     </g>
    </g>
    <g id="xtick_9">
     <g id="text_9">
      <!-- PBSA -->
      <g style="fill:#262626;" transform="translate(598.425917 548.663828)scale(0.209 -0.209)">
       <use xlink:href="#ArialMT-80"/>
       <use x="66.699219" xlink:href="#ArialMT-66"/>
       <use x="133.398438" xlink:href="#ArialMT-83"/>
       <use x="200.097656" xlink:href="#ArialMT-65"/>
      </g>
     </g>
    </g>
    <g id="xtick_10">
     <g id="text_10">
      <!-- PCL -->
      <g style="fill:#262626;" transform="translate(670.944661 548.663828)scale(0.209 -0.209)">
       <defs>
        <path d="M 58.796875 25.09375 
L 68.265625 22.703125 
Q 65.28125 11.03125 57.546875 4.90625 
Q 49.8125 -1.21875 38.625 -1.21875 
Q 27.046875 -1.21875 19.796875 3.484375 
Q 12.546875 8.203125 8.765625 17.140625 
Q 4.984375 26.078125 4.984375 36.328125 
Q 4.984375 47.515625 9.25 55.828125 
Q 13.53125 64.15625 21.40625 68.46875 
Q 29.296875 72.796875 38.765625 72.796875 
Q 49.515625 72.796875 56.828125 67.328125 
Q 64.15625 61.859375 67.046875 51.953125 
L 57.71875 49.75 
Q 55.21875 57.5625 50.484375 61.125 
Q 45.75 64.703125 38.578125 64.703125 
Q 30.328125 64.703125 24.78125 60.734375 
Q 19.234375 56.78125 16.984375 50.109375 
Q 14.75 43.453125 14.75 36.375 
Q 14.75 27.25 17.40625 20.4375 
Q 20.0625 13.625 25.671875 10.25 
Q 31.296875 6.890625 37.84375 6.890625 
Q 45.796875 6.890625 51.3125 11.46875 
Q 56.84375 16.0625 58.796875 25.09375 
z
" id="ArialMT-67"/>
        <path d="M 7.328125 0 
L 7.328125 71.578125 
L 16.796875 71.578125 
L 16.796875 8.453125 
L 52.046875 8.453125 
L 52.046875 0 
z
" id="ArialMT-76"/>
       </defs>
       <use xlink:href="#ArialMT-80"/>
       <use x="66.699219" xlink:href="#ArialMT-67"/>
       <use x="138.916016" xlink:href="#ArialMT-76"/>
      </g>
     </g>
    </g>
    <g id="xtick_11">
     <g id="text_11">
      <!-- LDPE -->
      <g style="fill:#262626;" transform="translate(728.939539 548.663828)scale(0.209 -0.209)">
       <defs>
        <path d="M 7.71875 0 
L 7.71875 71.578125 
L 32.375 71.578125 
Q 40.71875 71.578125 45.125 70.5625 
Q 51.265625 69.140625 55.609375 65.4375 
Q 61.28125 60.640625 64.078125 53.1875 
Q 66.890625 45.75 66.890625 36.1875 
Q 66.890625 28.03125 64.984375 21.734375 
Q 63.09375 15.4375 60.109375 11.296875 
Q 57.125 7.171875 53.578125 4.796875 
Q 50.046875 2.4375 45.046875 1.21875 
Q 40.046875 0 33.546875 0 
z
M 17.1875 8.453125 
L 32.46875 8.453125 
Q 39.546875 8.453125 43.578125 9.765625 
Q 47.609375 11.078125 50 13.484375 
Q 53.375 16.84375 55.25 22.53125 
Q 57.125 28.21875 57.125 36.328125 
Q 57.125 47.5625 53.4375 53.59375 
Q 49.75 59.625 44.484375 61.671875 
Q 40.671875 63.140625 32.234375 63.140625 
L 17.1875 63.140625 
z
" id="ArialMT-68"/>
       </defs>
       <use xlink:href="#ArialMT-76"/>
       <use x="55.615234" xlink:href="#ArialMT-68"/>
       <use x="127.832031" xlink:href="#ArialMT-80"/>
       <use x="194.53125" xlink:href="#ArialMT-69"/>
      </g>
     </g>
    </g>
    <g id="xtick_12">
     <g id="text_12">
      <!-- PHB -->
      <g style="fill:#262626;" transform="translate(799.716073 548.663828)scale(0.209 -0.209)">
       <use xlink:href="#ArialMT-80"/>
       <use x="66.699219" xlink:href="#ArialMT-72"/>
       <use x="138.916016" xlink:href="#ArialMT-66"/>
      </g>
     </g>
    </g>
    <g id="xtick_13">
     <g id="text_13">
      <!-- PES -->
      <g style="fill:#262626;" transform="translate(865.25781 548.663828)scale(0.209 -0.209)">
       <use xlink:href="#ArialMT-80"/>
       <use x="66.699219" xlink:href="#ArialMT-69"/>
       <use x="133.398438" xlink:href="#ArialMT-83"/>
      </g>
     </g>
    </g>
    <g id="xtick_14">
     <g id="text_14">
      <!-- PU -->
      <g style="fill:#262626;" transform="translate(936.617258 548.663828)scale(0.209 -0.209)">
       <defs>
        <path d="M 54.6875 71.578125 
L 64.15625 71.578125 
L 64.15625 30.21875 
Q 64.15625 19.4375 61.71875 13.078125 
Q 59.28125 6.734375 52.90625 2.75 
Q 46.53125 -1.21875 36.1875 -1.21875 
Q 26.125 -1.21875 19.71875 2.25 
Q 13.328125 5.71875 10.59375 12.28125 
Q 7.859375 18.84375 7.859375 30.21875 
L 7.859375 71.578125 
L 17.328125 71.578125 
L 17.328125 30.28125 
Q 17.328125 20.953125 19.0625 16.53125 
Q 20.796875 12.109375 25.015625 9.71875 
Q 29.25 7.328125 35.359375 7.328125 
Q 45.796875 7.328125 50.234375 12.0625 
Q 54.6875 16.796875 54.6875 30.28125 
z
" id="ArialMT-85"/>
       </defs>
       <use xlink:href="#ArialMT-80"/>
       <use x="66.699219" xlink:href="#ArialMT-85"/>
      </g>
     </g>
    </g>
    <g id="xtick_15">
     <g id="text_15">
      <!-- PLA -->
      <g style="fill:#262626;" transform="translate(996.347815 548.663828)scale(0.209 -0.209)">
       <use xlink:href="#ArialMT-80"/>
       <use x="66.699219" xlink:href="#ArialMT-76"/>
       <use x="122.314453" xlink:href="#ArialMT-65"/>
      </g>
      <!-- (-blend) -->
      <g style="fill:#262626;" transform="translate(980.094799 571.075159)scale(0.209 -0.209)">
       <defs>
        <path d="M 23.390625 -21.046875 
Q 16.109375 -11.859375 11.078125 0.4375 
Q 6.0625 12.75 6.0625 25.921875 
Q 6.0625 37.546875 9.8125 48.1875 
Q 14.203125 60.546875 23.390625 72.796875 
L 29.6875 72.796875 
Q 23.78125 62.640625 21.875 58.296875 
Q 18.890625 51.5625 17.1875 44.234375 
Q 15.09375 35.109375 15.09375 25.875 
Q 15.09375 2.390625 29.6875 -21.046875 
z
" id="ArialMT-40"/>
        <path d="M 12.359375 -21.046875 
L 6.0625 -21.046875 
Q 20.65625 2.390625 20.65625 25.875 
Q 20.65625 35.0625 18.5625 44.09375 
Q 16.890625 51.421875 13.921875 58.15625 
Q 12.015625 62.546875 6.0625 72.796875 
L 12.359375 72.796875 
Q 21.53125 60.546875 25.921875 48.1875 
Q 29.6875 37.546875 29.6875 25.921875 
Q 29.6875 12.75 24.625 0.4375 
Q 19.578125 -11.859375 12.359375 -21.046875 
z
" id="ArialMT-41"/>
       </defs>
       <use xlink:href="#ArialMT-40"/>
       <use x="33.300781" xlink:href="#ArialMT-45"/>
       <use x="66.601562" xlink:href="#ArialMT-98"/>
       <use x="122.216797" xlink:href="#ArialMT-108"/>
       <use x="144.433594" xlink:href="#ArialMT-101"/>
       <use x="200.048828" xlink:href="#ArialMT-110"/>
       <use x="255.664062" xlink:href="#ArialMT-100"/>
       <use x="311.279297" xlink:href="#ArialMT-41"/>
      </g>
     </g>
    </g>
    <g id="xtick_16">
     <g id="text_16">
      <!-- PP -->
      <g style="fill:#262626;" transform="translate(1067.124349 548.663828)scale(0.209 -0.209)">
       <use xlink:href="#ArialMT-80"/>
       <use x="66.699219" xlink:href="#ArialMT-80"/>
      </g>
     </g>
    </g>
    <g id="xtick_17">
     <g id="text_17">
      <!-- PBAT -->
      <g style="fill:#262626;" transform="translate(1119.50725 548.663828)scale(0.209 -0.209)">
       <use xlink:href="#ArialMT-80"/>
       <use x="66.699219" xlink:href="#ArialMT-66"/>
       <use x="133.398438" xlink:href="#ArialMT-65"/>
       <use x="192.722656" xlink:href="#ArialMT-84"/>
      </g>
     </g>
    </g>
    <g id="xtick_18">
     <g id="text_18">
      <!-- HDPE -->
      <g style="fill:#262626;" transform="translate(1181.961339 548.663828)scale(0.209 -0.209)">
       <use xlink:href="#ArialMT-72"/>
       <use x="72.216797" xlink:href="#ArialMT-68"/>
       <use x="144.433594" xlink:href="#ArialMT-80"/>
       <use x="211.132812" xlink:href="#ArialMT-69"/>
      </g>
     </g>
    </g>
    <g id="xtick_19">
     <g id="text_19">
      <!-- PC -->
      <g style="fill:#262626;" transform="translate(1261.444029 548.663828)scale(0.209 -0.209)">
       <use xlink:href="#ArialMT-80"/>
       <use x="66.699219" xlink:href="#ArialMT-67"/>
      </g>
     </g>
    </g>
    <g id="xtick_20">
     <g id="text_20">
      <!-- PE -->
      <g style="fill:#262626;" transform="translate(1326.985766 548.663828)scale(0.209 -0.209)">
       <use xlink:href="#ArialMT-80"/>
       <use x="66.699219" xlink:href="#ArialMT-69"/>
      </g>
     </g>
    </g>
    <g id="xtick_21">
     <g id="text_21">
      <!-- NR/ -->
      <g style="fill:#262626;" transform="translate(1387.895214 548.663828)scale(0.209 -0.209)">
       <defs>
        <path d="M 7.625 0 
L 7.625 71.578125 
L 17.328125 71.578125 
L 54.9375 15.375 
L 54.9375 71.578125 
L 64.015625 71.578125 
L 64.015625 0 
L 54.296875 0 
L 16.703125 56.25 
L 16.703125 0 
z
" id="ArialMT-78"/>
        <path d="M 7.859375 0 
L 7.859375 71.578125 
L 39.59375 71.578125 
Q 49.171875 71.578125 54.140625 69.640625 
Q 59.125 67.71875 62.109375 62.828125 
Q 65.09375 57.953125 65.09375 52.046875 
Q 65.09375 44.4375 60.15625 39.203125 
Q 55.21875 33.984375 44.921875 32.5625 
Q 48.6875 30.765625 50.640625 29 
Q 54.78125 25.203125 58.5 19.484375 
L 70.953125 0 
L 59.03125 0 
L 49.5625 14.890625 
Q 45.40625 21.34375 42.71875 24.75 
Q 40.046875 28.171875 37.921875 29.53125 
Q 35.796875 30.90625 33.59375 31.453125 
Q 31.984375 31.78125 28.328125 31.78125 
L 17.328125 31.78125 
L 17.328125 0 
z
M 17.328125 39.984375 
L 37.703125 39.984375 
Q 44.1875 39.984375 47.84375 41.328125 
Q 51.515625 42.671875 53.421875 45.625 
Q 55.328125 48.578125 55.328125 52.046875 
Q 55.328125 57.125 51.640625 60.390625 
Q 47.953125 63.671875 39.984375 63.671875 
L 17.328125 63.671875 
z
" id="ArialMT-82"/>
        <path d="M 0 -1.21875 
L 20.75 72.796875 
L 27.78125 72.796875 
L 7.078125 -1.21875 
z
" id="ArialMT-47"/>
       </defs>
       <use xlink:href="#ArialMT-78"/>
       <use x="72.216797" xlink:href="#ArialMT-82"/>
       <use x="144.433594" xlink:href="#ArialMT-47"/>
      </g>
      <!-- SBR -->
      <g style="fill:#262626;" transform="translate(1384.40426 570.769497)scale(0.209 -0.209)">
       <use xlink:href="#ArialMT-83"/>
       <use x="66.699219" xlink:href="#ArialMT-66"/>
       <use x="133.398438" xlink:href="#ArialMT-82"/>
      </g>
     </g>
    </g>
    <g id="xtick_22">
     <g id="text_22">
      <!-- PET -->
      <g style="fill:#262626;" transform="translate(1450.53381 548.663828)scale(0.209 -0.209)">
       <use xlink:href="#ArialMT-80"/>
       <use x="66.699219" xlink:href="#ArialMT-69"/>
       <use x="133.398438" xlink:href="#ArialMT-84"/>
      </g>
     </g>
    </g>
    <g id="xtick_23">
     <g id="text_23">
      <!-- PVC -->
      <g style="fill:#262626;" transform="translate(1514.334969 548.663828)scale(0.209 -0.209)">
       <use xlink:href="#ArialMT-80"/>
       <use x="66.699219" xlink:href="#ArialMT-86"/>
       <use x="133.398438" xlink:href="#ArialMT-67"/>
      </g>
     </g>
    </g>
    <g id="xtick_24">
     <g id="text_24">
      <!-- PS -->
      <g style="fill:#262626;" transform="translate(1586.847182 548.663828)scale(0.209 -0.209)">
       <use xlink:href="#ArialMT-80"/>
       <use x="66.699219" xlink:href="#ArialMT-83"/>
      </g>
     </g>
    </g>
    <g id="text_25">
     <!-- Plastic type -->
     <g style="fill:#262626;" transform="translate(795.396938 595.793769)scale(0.228 -0.228)">
      <defs>
       <path d="M 3.078125 15.484375 
L 11.765625 16.84375 
Q 12.5 11.625 15.84375 8.84375 
Q 19.1875 6.0625 25.203125 6.0625 
Q 31.25 6.0625 34.171875 8.515625 
Q 37.109375 10.984375 37.109375 14.3125 
Q 37.109375 17.28125 34.515625 19 
Q 32.71875 20.171875 25.53125 21.96875 
Q 15.875 24.421875 12.140625 26.203125 
Q 8.40625 27.984375 6.46875 31.125 
Q 4.546875 34.28125 4.546875 38.09375 
Q 4.546875 41.546875 6.125 44.5 
Q 7.71875 47.46875 10.453125 49.421875 
Q 12.5 50.921875 16.03125 51.96875 
Q 19.578125 53.03125 23.640625 53.03125 
Q 29.734375 53.03125 34.34375 51.265625 
Q 38.96875 49.515625 41.15625 46.5 
Q 43.359375 43.5 44.1875 38.484375 
L 35.59375 37.3125 
Q 35.015625 41.3125 32.203125 43.546875 
Q 29.390625 45.796875 24.265625 45.796875 
Q 18.21875 45.796875 15.625 43.796875 
Q 13.03125 41.796875 13.03125 39.109375 
Q 13.03125 37.40625 14.109375 36.03125 
Q 15.1875 34.625 17.484375 33.6875 
Q 18.796875 33.203125 25.25 31.453125 
Q 34.578125 28.953125 38.25 27.359375 
Q 41.9375 25.78125 44.03125 22.75 
Q 46.140625 19.734375 46.140625 15.234375 
Q 46.140625 10.84375 43.578125 6.953125 
Q 41.015625 3.078125 36.171875 0.953125 
Q 31.34375 -1.171875 25.25 -1.171875 
Q 15.140625 -1.171875 9.84375 3.03125 
Q 4.546875 7.234375 3.078125 15.484375 
z
" id="ArialMT-115"/>
       <path d="M 6.640625 61.46875 
L 6.640625 71.578125 
L 15.4375 71.578125 
L 15.4375 61.46875 
z
M 6.640625 0 
L 6.640625 51.859375 
L 15.4375 51.859375 
L 15.4375 0 
z
" id="ArialMT-105"/>
       <path id="ArialMT-32"/>
       <path d="M 6.203125 -19.96875 
L 5.21875 -11.71875 
Q 8.109375 -12.5 10.25 -12.5 
Q 13.1875 -12.5 14.9375 -11.515625 
Q 16.703125 -10.546875 17.828125 -8.796875 
Q 18.65625 -7.46875 20.515625 -2.25 
Q 20.75 -1.515625 21.296875 -0.09375 
L 1.609375 51.859375 
L 11.078125 51.859375 
L 21.875 21.828125 
Q 23.96875 16.109375 25.640625 9.8125 
Q 27.15625 15.875 29.25 21.625 
L 40.328125 51.859375 
L 49.125 51.859375 
L 29.390625 -0.875 
Q 26.21875 -9.421875 24.46875 -12.640625 
Q 22.125 -17 19.09375 -19.015625 
Q 16.0625 -21.046875 11.859375 -21.046875 
Q 9.328125 -21.046875 6.203125 -19.96875 
z
" id="ArialMT-121"/>
       <path d="M 6.59375 -19.875 
L 6.59375 51.859375 
L 14.59375 51.859375 
L 14.59375 45.125 
Q 17.4375 49.078125 21 51.046875 
Q 24.5625 53.03125 29.640625 53.03125 
Q 36.28125 53.03125 41.359375 49.609375 
Q 46.4375 46.1875 49.015625 39.953125 
Q 51.609375 33.734375 51.609375 26.3125 
Q 51.609375 18.359375 48.75 11.984375 
Q 45.90625 5.609375 40.453125 2.21875 
Q 35.015625 -1.171875 29 -1.171875 
Q 24.609375 -1.171875 21.109375 0.6875 
Q 17.625 2.546875 15.375 5.375 
L 15.375 -19.875 
z
M 14.546875 25.640625 
Q 14.546875 15.625 18.59375 10.84375 
Q 22.65625 6.0625 28.421875 6.0625 
Q 34.28125 6.0625 38.453125 11.015625 
Q 42.625 15.96875 42.625 26.375 
Q 42.625 36.28125 38.546875 41.203125 
Q 34.46875 46.140625 28.8125 46.140625 
Q 23.1875 46.140625 18.859375 40.890625 
Q 14.546875 35.640625 14.546875 25.640625 
z
" id="ArialMT-112"/>
      </defs>
      <use xlink:href="#ArialMT-80"/>
      <use x="66.699219" xlink:href="#ArialMT-108"/>
      <use x="88.916016" xlink:href="#ArialMT-97"/>
      <use x="144.53125" xlink:href="#ArialMT-115"/>
      <use x="194.53125" xlink:href="#ArialMT-116"/>
      <use x="222.314453" xlink:href="#ArialMT-105"/>
      <use x="244.53125" xlink:href="#ArialMT-99"/>
      <use x="294.53125" xlink:href="#ArialMT-32"/>
      <use x="322.314453" xlink:href="#ArialMT-116"/>
      <use x="350.097656" xlink:href="#ArialMT-121"/>
      <use x="400.097656" xlink:href="#ArialMT-112"/>
      <use x="455.712891" xlink:href="#ArialMT-101"/>
     </g>
    </g>
   </g>
   <g id="matplotlib.axis_2">
    <g id="ytick_1">
     <g id="line2d_1">
      <path clip-path="url(#p0460851e0e)" d="M 74.102312 515.288369 
L 1633.270812 515.288369 
" style="fill:none;stroke:#cccccc;stroke-linecap:round;"/>
     </g>
     <g id="text_26">
      <!-- 1.0 -->
      <g style="fill:#262626;" transform="translate(32.051312 522.768283)scale(0.209 -0.209)">
       <defs>
        <path d="M 37.25 0 
L 28.46875 0 
L 28.46875 56 
Q 25.296875 52.984375 20.140625 49.953125 
Q 14.984375 46.921875 10.890625 45.40625 
L 10.890625 53.90625 
Q 18.265625 57.375 23.78125 62.296875 
Q 29.296875 67.234375 31.59375 71.875 
L 37.25 71.875 
z
" id="ArialMT-49"/>
        <path d="M 9.078125 0 
L 9.078125 10.015625 
L 19.09375 10.015625 
L 19.09375 0 
z
" id="ArialMT-46"/>
        <path d="M 4.15625 35.296875 
Q 4.15625 48 6.765625 55.734375 
Q 9.375 63.484375 14.515625 67.671875 
Q 19.671875 71.875 27.484375 71.875 
Q 33.25 71.875 37.59375 69.546875 
Q 41.9375 67.234375 44.765625 62.859375 
Q 47.609375 58.5 49.21875 52.21875 
Q 50.828125 45.953125 50.828125 35.296875 
Q 50.828125 22.703125 48.234375 14.96875 
Q 45.65625 7.234375 40.5 3 
Q 35.359375 -1.21875 27.484375 -1.21875 
Q 17.140625 -1.21875 11.234375 6.203125 
Q 4.15625 15.140625 4.15625 35.296875 
z
M 13.1875 35.296875 
Q 13.1875 17.671875 17.3125 11.828125 
Q 21.4375 6 27.484375 6 
Q 33.546875 6 37.671875 11.859375 
Q 41.796875 17.71875 41.796875 35.296875 
Q 41.796875 52.984375 37.671875 58.78125 
Q 33.546875 64.59375 27.390625 64.59375 
Q 21.34375 64.59375 17.71875 59.46875 
Q 13.1875 52.9375 13.1875 35.296875 
z
" id="ArialMT-48"/>
       </defs>
       <use xlink:href="#ArialMT-49"/>
       <use x="55.615234" xlink:href="#ArialMT-46"/>
       <use x="83.398438" xlink:href="#ArialMT-48"/>
      </g>
     </g>
    </g>
    <g id="ytick_2">
     <g id="line2d_2">
      <path clip-path="url(#p0460851e0e)" d="M 74.102312 424.504129 
L 1633.270812 424.504129 
" style="fill:none;stroke:#cccccc;stroke-linecap:round;"/>
     </g>
     <g id="text_27">
      <!-- 1.5 -->
      <g style="fill:#262626;" transform="translate(32.051312 431.984043)scale(0.209 -0.209)">
       <defs>
        <path d="M 4.15625 18.75 
L 13.375 19.53125 
Q 14.40625 12.796875 18.140625 9.390625 
Q 21.875 6 27.15625 6 
Q 33.5 6 37.890625 10.78125 
Q 42.28125 15.578125 42.28125 23.484375 
Q 42.28125 31 38.0625 35.34375 
Q 33.84375 39.703125 27 39.703125 
Q 22.75 39.703125 19.328125 37.765625 
Q 15.921875 35.84375 13.96875 32.765625 
L 5.71875 33.84375 
L 12.640625 70.609375 
L 48.25 70.609375 
L 48.25 62.203125 
L 19.671875 62.203125 
L 15.828125 42.96875 
Q 22.265625 47.46875 29.34375 47.46875 
Q 38.71875 47.46875 45.15625 40.96875 
Q 51.609375 34.46875 51.609375 24.265625 
Q 51.609375 14.546875 45.953125 7.46875 
Q 39.0625 -1.21875 27.15625 -1.21875 
Q 17.390625 -1.21875 11.203125 4.25 
Q 5.03125 9.71875 4.15625 18.75 
z
" id="ArialMT-53"/>
       </defs>
       <use xlink:href="#ArialMT-49"/>
       <use x="55.615234" xlink:href="#ArialMT-46"/>
       <use x="83.398438" xlink:href="#ArialMT-53"/>
      </g>
     </g>
    </g>
    <g id="ytick_3">
     <g id="line2d_3">
      <path clip-path="url(#p0460851e0e)" d="M 74.102312 333.719889 
L 1633.270812 333.719889 
" style="fill:none;stroke:#cccccc;stroke-linecap:round;"/>
     </g>
     <g id="text_28">
      <!-- 2.0 -->
      <g style="fill:#262626;" transform="translate(32.051312 341.199803)scale(0.209 -0.209)">
       <defs>
        <path d="M 50.34375 8.453125 
L 50.34375 0 
L 3.03125 0 
Q 2.9375 3.171875 4.046875 6.109375 
Q 5.859375 10.9375 9.828125 15.625 
Q 13.8125 20.3125 21.34375 26.46875 
Q 33.015625 36.03125 37.109375 41.625 
Q 41.21875 47.21875 41.21875 52.203125 
Q 41.21875 57.421875 37.46875 61 
Q 33.734375 64.59375 27.734375 64.59375 
Q 21.390625 64.59375 17.578125 60.78125 
Q 13.765625 56.984375 13.71875 50.25 
L 4.6875 51.171875 
Q 5.609375 61.28125 11.65625 66.578125 
Q 17.71875 71.875 27.9375 71.875 
Q 38.234375 71.875 44.234375 66.15625 
Q 50.25 60.453125 50.25 52 
Q 50.25 47.703125 48.484375 43.546875 
Q 46.734375 39.40625 42.65625 34.8125 
Q 38.578125 30.21875 29.109375 22.21875 
Q 21.1875 15.578125 18.9375 13.203125 
Q 16.703125 10.84375 15.234375 8.453125 
z
" id="ArialMT-50"/>
       </defs>
       <use xlink:href="#ArialMT-50"/>
       <use x="55.615234" xlink:href="#ArialMT-46"/>
       <use x="83.398438" xlink:href="#ArialMT-48"/>
      </g>
     </g>
    </g>
    <g id="ytick_4">
     <g id="line2d_4">
      <path clip-path="url(#p0460851e0e)" d="M 74.102312 242.935649 
L 1633.270812 242.935649 
" style="fill:none;stroke:#cccccc;stroke-linecap:round;"/>
     </g>
     <g id="text_29">
      <!-- 2.5 -->
      <g style="fill:#262626;" transform="translate(32.051312 250.415563)scale(0.209 -0.209)">
       <use xlink:href="#ArialMT-50"/>
       <use x="55.615234" xlink:href="#ArialMT-46"/>
       <use x="83.398438" xlink:href="#ArialMT-53"/>
      </g>
     </g>
    </g>
    <g id="ytick_5">
     <g id="line2d_5">
      <path clip-path="url(#p0460851e0e)" d="M 74.102312 152.151409 
L 1633.270812 152.151409 
" style="fill:none;stroke:#cccccc;stroke-linecap:round;"/>
     </g>
     <g id="text_30">
      <!-- 3.0 -->
      <g style="fill:#262626;" transform="translate(32.051312 159.631324)scale(0.209 -0.209)">
       <defs>
        <path d="M 4.203125 18.890625 
L 12.984375 20.0625 
Q 14.5 12.59375 18.140625 9.296875 
Q 21.78125 6 27 6 
Q 33.203125 6 37.46875 10.296875 
Q 41.75 14.59375 41.75 20.953125 
Q 41.75 27 37.796875 30.921875 
Q 33.84375 34.859375 27.734375 34.859375 
Q 25.25 34.859375 21.53125 33.890625 
L 22.515625 41.609375 
Q 23.390625 41.5 23.921875 41.5 
Q 29.546875 41.5 34.03125 44.421875 
Q 38.53125 47.359375 38.53125 53.46875 
Q 38.53125 58.296875 35.25 61.46875 
Q 31.984375 64.65625 26.8125 64.65625 
Q 21.6875 64.65625 18.265625 61.421875 
Q 14.84375 58.203125 13.875 51.765625 
L 5.078125 53.328125 
Q 6.6875 62.15625 12.390625 67.015625 
Q 18.109375 71.875 26.609375 71.875 
Q 32.46875 71.875 37.390625 69.359375 
Q 42.328125 66.84375 44.9375 62.5 
Q 47.5625 58.15625 47.5625 53.265625 
Q 47.5625 48.640625 45.0625 44.828125 
Q 42.578125 41.015625 37.703125 38.765625 
Q 44.046875 37.3125 47.5625 32.6875 
Q 51.078125 28.078125 51.078125 21.140625 
Q 51.078125 11.765625 44.234375 5.25 
Q 37.40625 -1.265625 26.953125 -1.265625 
Q 17.53125 -1.265625 11.296875 4.34375 
Q 5.078125 9.96875 4.203125 18.890625 
z
" id="ArialMT-51"/>
       </defs>
       <use xlink:href="#ArialMT-51"/>
       <use x="55.615234" xlink:href="#ArialMT-46"/>
       <use x="83.398438" xlink:href="#ArialMT-48"/>
      </g>
     </g>
    </g>
    <g id="ytick_6">
     <g id="line2d_6">
      <path clip-path="url(#p0460851e0e)" d="M 74.102312 61.36717 
L 1633.270812 61.36717 
" style="fill:none;stroke:#cccccc;stroke-linecap:round;"/>
     </g>
     <g id="text_31">
      <!-- 3.5 -->
      <g style="fill:#262626;" transform="translate(32.051312 68.847084)scale(0.209 -0.209)">
       <use xlink:href="#ArialMT-51"/>
       <use x="55.615234" xlink:href="#ArialMT-46"/>
       <use x="83.398438" xlink:href="#ArialMT-53"/>
      </g>
     </g>
    </g>
    <g id="text_32">
     <!-- Geometric standard deviation of fate factors -->
     <g style="fill:#262626;" transform="translate(23.519812 485.0835)rotate(-90)scale(0.228 -0.228)">
      <defs>
       <path d="M 41.21875 28.078125 
L 41.21875 36.46875 
L 71.53125 36.53125 
L 71.53125 9.96875 
Q 64.546875 4.390625 57.125 1.578125 
Q 49.703125 -1.21875 41.890625 -1.21875 
Q 31.34375 -1.21875 22.71875 3.296875 
Q 14.109375 7.8125 9.71875 16.359375 
Q 5.328125 24.90625 5.328125 35.453125 
Q 5.328125 45.90625 9.6875 54.953125 
Q 14.0625 64.015625 22.265625 68.40625 
Q 30.46875 72.796875 41.15625 72.796875 
Q 48.921875 72.796875 55.1875 70.28125 
Q 61.46875 67.78125 65.03125 63.28125 
Q 68.609375 58.796875 70.453125 51.5625 
L 61.921875 49.21875 
Q 60.296875 54.6875 57.90625 57.8125 
Q 55.515625 60.9375 51.0625 62.8125 
Q 46.625 64.703125 41.21875 64.703125 
Q 34.71875 64.703125 29.984375 62.71875 
Q 25.25 60.75 22.34375 57.515625 
Q 19.4375 54.296875 17.828125 50.4375 
Q 15.09375 43.796875 15.09375 36.03125 
Q 15.09375 26.46875 18.390625 20.015625 
Q 21.6875 13.578125 27.984375 10.453125 
Q 34.28125 7.328125 41.359375 7.328125 
Q 47.515625 7.328125 53.375 9.6875 
Q 59.234375 12.0625 62.25 14.75 
L 62.25 28.078125 
z
" id="ArialMT-71"/>
       <path d="M 3.328125 25.921875 
Q 3.328125 40.328125 11.328125 47.265625 
Q 18.015625 53.03125 27.640625 53.03125 
Q 38.328125 53.03125 45.109375 46.015625 
Q 51.90625 39.015625 51.90625 26.65625 
Q 51.90625 16.65625 48.90625 10.90625 
Q 45.90625 5.171875 40.15625 2 
Q 34.421875 -1.171875 27.640625 -1.171875 
Q 16.75 -1.171875 10.03125 5.8125 
Q 3.328125 12.796875 3.328125 25.921875 
z
M 12.359375 25.921875 
Q 12.359375 15.96875 16.703125 11.015625 
Q 21.046875 6.0625 27.640625 6.0625 
Q 34.1875 6.0625 38.53125 11.03125 
Q 42.875 16.015625 42.875 26.21875 
Q 42.875 35.84375 38.5 40.796875 
Q 34.125 45.75 27.640625 45.75 
Q 21.046875 45.75 16.703125 40.8125 
Q 12.359375 35.890625 12.359375 25.921875 
z
" id="ArialMT-111"/>
       <path d="M 6.59375 0 
L 6.59375 51.859375 
L 14.453125 51.859375 
L 14.453125 44.578125 
Q 16.890625 48.390625 20.9375 50.703125 
Q 25 53.03125 30.171875 53.03125 
Q 35.9375 53.03125 39.625 50.640625 
Q 43.3125 48.25 44.828125 43.953125 
Q 50.984375 53.03125 60.84375 53.03125 
Q 68.5625 53.03125 72.703125 48.75 
Q 76.859375 44.484375 76.859375 35.59375 
L 76.859375 0 
L 68.109375 0 
L 68.109375 32.671875 
Q 68.109375 37.9375 67.25 40.25 
Q 66.40625 42.578125 64.15625 43.984375 
Q 61.921875 45.40625 58.890625 45.40625 
Q 53.421875 45.40625 49.796875 41.765625 
Q 46.1875 38.140625 46.1875 30.125 
L 46.1875 0 
L 37.40625 0 
L 37.40625 33.6875 
Q 37.40625 39.546875 35.25 42.46875 
Q 33.109375 45.40625 28.21875 45.40625 
Q 24.515625 45.40625 21.359375 43.453125 
Q 18.21875 41.5 16.796875 37.734375 
Q 15.375 33.984375 15.375 26.90625 
L 15.375 0 
z
" id="ArialMT-109"/>
       <path d="M 21 0 
L 1.265625 51.859375 
L 10.546875 51.859375 
L 21.6875 20.796875 
Q 23.484375 15.765625 25 10.359375 
Q 26.171875 14.453125 28.265625 20.21875 
L 39.796875 51.859375 
L 48.828125 51.859375 
L 29.203125 0 
z
" id="ArialMT-118"/>
       <path d="M 8.6875 0 
L 8.6875 45.015625 
L 0.921875 45.015625 
L 0.921875 51.859375 
L 8.6875 51.859375 
L 8.6875 57.375 
Q 8.6875 62.59375 9.625 65.140625 
Q 10.890625 68.5625 14.078125 70.671875 
Q 17.28125 72.796875 23.046875 72.796875 
Q 26.765625 72.796875 31.25 71.921875 
L 29.9375 64.265625 
Q 27.203125 64.75 24.75 64.75 
Q 20.75 64.75 19.09375 63.03125 
Q 17.4375 61.328125 17.4375 56.640625 
L 17.4375 51.859375 
L 27.546875 51.859375 
L 27.546875 45.015625 
L 17.4375 45.015625 
L 17.4375 0 
z
" id="ArialMT-102"/>
      </defs>
      <use xlink:href="#ArialMT-71"/>
      <use x="77.783203" xlink:href="#ArialMT-101"/>
      <use x="133.398438" xlink:href="#ArialMT-111"/>
      <use x="189.013672" xlink:href="#ArialMT-109"/>
      <use x="272.314453" xlink:href="#ArialMT-101"/>
      <use x="327.929688" xlink:href="#ArialMT-116"/>
      <use x="355.712891" xlink:href="#ArialMT-114"/>
      <use x="389.013672" xlink:href="#ArialMT-105"/>
      <use x="411.230469" xlink:href="#ArialMT-99"/>
      <use x="461.230469" xlink:href="#ArialMT-32"/>
      <use x="489.013672" xlink:href="#ArialMT-115"/>
      <use x="539.013672" xlink:href="#ArialMT-116"/>
      <use x="566.796875" xlink:href="#ArialMT-97"/>
      <use x="622.412109" xlink:href="#ArialMT-110"/>
      <use x="678.027344" xlink:href="#ArialMT-100"/>
      <use x="733.642578" xlink:href="#ArialMT-97"/>
      <use x="789.257812" xlink:href="#ArialMT-114"/>
      <use x="822.558594" xlink:href="#ArialMT-100"/>
      <use x="878.173828" xlink:href="#ArialMT-32"/>
      <use x="905.957031" xlink:href="#ArialMT-100"/>
      <use x="961.572266" xlink:href="#ArialMT-101"/>
      <use x="1017.1875" xlink:href="#ArialMT-118"/>
      <use x="1067.1875" xlink:href="#ArialMT-105"/>
      <use x="1089.404297" xlink:href="#ArialMT-97"/>
      <use x="1145.019531" xlink:href="#ArialMT-116"/>
      <use x="1172.802734" xlink:href="#ArialMT-105"/>
      <use x="1195.019531" xlink:href="#ArialMT-111"/>
      <use x="1250.634766" xlink:href="#ArialMT-110"/>
      <use x="1306.25" xlink:href="#ArialMT-32"/>
      <use x="1334.033203" xlink:href="#ArialMT-111"/>
      <use x="1389.648438" xlink:href="#ArialMT-102"/>
      <use x="1417.431641" xlink:href="#ArialMT-32"/>
      <use x="1445.214844" xlink:href="#ArialMT-102"/>
      <use x="1472.998047" xlink:href="#ArialMT-97"/>
      <use x="1528.613281" xlink:href="#ArialMT-116"/>
      <use x="1556.396484" xlink:href="#ArialMT-101"/>
      <use x="1612.011719" xlink:href="#ArialMT-32"/>
      <use x="1639.794922" xlink:href="#ArialMT-102"/>
      <use x="1667.578125" xlink:href="#ArialMT-97"/>
      <use x="1723.193359" xlink:href="#ArialMT-99"/>
      <use x="1773.193359" xlink:href="#ArialMT-116"/>
      <use x="1800.976562" xlink:href="#ArialMT-111"/>
      <use x="1856.591797" xlink:href="#ArialMT-114"/>
      <use x="1889.892578" xlink:href="#ArialMT-115"/>
     </g>
    </g>
   </g>
   <g id="patch_3">
    <path clip-path="url(#p0460851e0e)" d="M 80.598848 484.026635 
L 132.571131 484.026635 
L 132.571131 477.550744 
L 80.598848 477.550744 
L 80.598848 484.026635 
z
" style="fill:#117566;stroke:#282828;stroke-linejoin:miter;stroke-width:1.5;"/>
   </g>
   <g id="patch_4">
    <path clip-path="url(#p0460851e0e)" d="M 145.564202 484.044833 
L 197.536485 484.044833 
L 197.536485 477.356919 
L 145.564202 477.356919 
L 145.564202 484.044833 
z
" style="fill:#117566;stroke:#282828;stroke-linejoin:miter;stroke-width:1.5;"/>
   </g>
   <g id="patch_5">
    <path clip-path="url(#p0460851e0e)" d="M 210.529556 478.332275 
L 262.50184 478.332275 
L 262.50184 457.715387 
L 210.529556 457.715387 
L 210.529556 478.332275 
z
" style="fill:#117566;stroke:#282828;stroke-linejoin:miter;stroke-width:1.5;"/>
   </g>
   <g id="patch_6">
    <path clip-path="url(#p0460851e0e)" d="M 275.49491 478.496937 
L 327.467194 478.496937 
L 327.467194 452.551395 
L 275.49491 452.551395 
L 275.49491 478.496937 
z
" style="fill:#117566;stroke:#282828;stroke-linejoin:miter;stroke-width:1.5;"/>
   </g>
   <g id="patch_7">
    <path clip-path="url(#p0460851e0e)" d="M 340.460265 464.092901 
L 392.432548 464.092901 
L 392.432548 461.029119 
L 340.460265 461.029119 
L 340.460265 464.092901 
z
" style="fill:#117566;stroke:#282828;stroke-linejoin:miter;stroke-width:1.5;"/>
   </g>
   <g id="patch_8">
    <path clip-path="url(#p0460851e0e)" d="M 405.425619 468.883438 
L 457.397902 468.883438 
L 457.397902 452.368069 
L 405.425619 452.368069 
L 405.425619 468.883438 
z
" style="fill:#117566;stroke:#282828;stroke-linejoin:miter;stroke-width:1.5;"/>
   </g>
   <g id="patch_9">
    <path clip-path="url(#p0460851e0e)" d="M 470.390973 468.883438 
L 522.363256 468.883438 
L 522.363256 452.368069 
L 470.390973 452.368069 
L 470.390973 468.883438 
z
" style="fill:#117566;stroke:#282828;stroke-linejoin:miter;stroke-width:1.5;"/>
   </g>
   <g id="patch_10">
    <path clip-path="url(#p0460851e0e)" d="M 535.356327 476.803671 
L 587.32861 476.803671 
L 587.32861 444.326812 
L 535.356327 444.326812 
L 535.356327 476.803671 
z
" style="fill:#117566;stroke:#282828;stroke-linejoin:miter;stroke-width:1.5;"/>
   </g>
   <g id="patch_11">
    <path clip-path="url(#p0460851e0e)" d="M 600.321681 465.104401 
L 652.293965 465.104401 
L 652.293965 453.714402 
L 600.321681 453.714402 
L 600.321681 465.104401 
z
" style="fill:#117566;stroke:#282828;stroke-linejoin:miter;stroke-width:1.5;"/>
   </g>
   <g id="patch_12">
    <path clip-path="url(#p0460851e0e)" d="M 665.287035 459.243812 
L 717.259319 459.243812 
L 717.259319 455.833971 
L 665.287035 455.833971 
L 665.287035 459.243812 
z
" style="fill:#117566;stroke:#282828;stroke-linejoin:miter;stroke-width:1.5;"/>
   </g>
   <g id="patch_13">
    <path clip-path="url(#p0460851e0e)" d="M 730.25239 463.309338 
L 782.224673 463.309338 
L 782.224673 447.223037 
L 730.25239 447.223037 
L 730.25239 463.309338 
z
" style="fill:#117566;stroke:#282828;stroke-linejoin:miter;stroke-width:1.5;"/>
   </g>
   <g id="patch_14">
    <path clip-path="url(#p0460851e0e)" d="M 795.217744 460.20879 
L 847.190027 460.20879 
L 847.190027 426.612595 
L 795.217744 426.612595 
L 795.217744 460.20879 
z
" style="fill:#117566;stroke:#282828;stroke-linejoin:miter;stroke-width:1.5;"/>
   </g>
   <g id="patch_15">
    <path clip-path="url(#p0460851e0e)" d="M 860.183098 414.657374 
L 912.155381 414.657374 
L 912.155381 408.17933 
L 860.183098 408.17933 
L 860.183098 414.657374 
z
" style="fill:#117566;stroke:#282828;stroke-linejoin:miter;stroke-width:1.5;"/>
   </g>
   <g id="patch_16">
    <path clip-path="url(#p0460851e0e)" d="M 925.148452 412.535382 
L 977.120735 412.535382 
L 977.120735 405.216969 
L 925.148452 405.216969 
L 925.148452 412.535382 
z
" style="fill:#117566;stroke:#282828;stroke-linejoin:miter;stroke-width:1.5;"/>
   </g>
   <g id="patch_17">
    <path clip-path="url(#p0460851e0e)" d="M 990.113806 413.51139 
L 1042.08609 413.51139 
L 1042.08609 405.196172 
L 990.113806 405.196172 
L 990.113806 413.51139 
z
" style="fill:#117566;stroke:#282828;stroke-linejoin:miter;stroke-width:1.5;"/>
   </g>
   <g id="patch_18">
    <path clip-path="url(#p0460851e0e)" d="M 1055.07916 410.992488 
L 1107.051444 410.992488 
L 1107.051444 371.328449 
L 1055.07916 371.328449 
L 1055.07916 410.992488 
z
" style="fill:#117566;stroke:#282828;stroke-linejoin:miter;stroke-width:1.5;"/>
   </g>
   <g id="patch_19">
    <path clip-path="url(#p0460851e0e)" d="M 1120.044515 385.915426 
L 1172.016798 385.915426 
L 1172.016798 375.363813 
L 1120.044515 375.363813 
L 1120.044515 385.915426 
z
" style="fill:#117566;stroke:#282828;stroke-linejoin:miter;stroke-width:1.5;"/>
   </g>
   <g id="patch_20">
    <path clip-path="url(#p0460851e0e)" d="M 1185.009869 371.761363 
L 1236.982152 371.761363 
L 1236.982152 370.456957 
L 1185.009869 370.456957 
L 1185.009869 371.761363 
z
" style="fill:#117566;stroke:#282828;stroke-linejoin:miter;stroke-width:1.5;"/>
   </g>
   <g id="patch_21">
    <path clip-path="url(#p0460851e0e)" d="M 1249.975223 376.528232 
L 1301.947506 376.528232 
L 1301.947506 365.459306 
L 1249.975223 365.459306 
L 1249.975223 376.528232 
z
" style="fill:#117566;stroke:#282828;stroke-linejoin:miter;stroke-width:1.5;"/>
   </g>
   <g id="patch_22">
    <path clip-path="url(#p0460851e0e)" d="M 1314.940577 373.916396 
L 1366.91286 373.916396 
L 1366.91286 359.448095 
L 1314.940577 359.448095 
L 1314.940577 373.916396 
z
" style="fill:#117566;stroke:#282828;stroke-linejoin:miter;stroke-width:1.5;"/>
   </g>
   <g id="patch_23">
    <path clip-path="url(#p0460851e0e)" d="M 1379.905931 376.765708 
L 1431.878215 376.765708 
L 1431.878215 359.24371 
L 1379.905931 359.24371 
L 1379.905931 376.765708 
z
" style="fill:#117566;stroke:#282828;stroke-linejoin:miter;stroke-width:1.5;"/>
   </g>
   <g id="patch_24">
    <path clip-path="url(#p0460851e0e)" d="M 1444.871285 449.285121 
L 1496.843569 449.285121 
L 1496.843569 221.668684 
L 1444.871285 221.668684 
L 1444.871285 449.285121 
z
" style="fill:#117566;stroke:#282828;stroke-linejoin:miter;stroke-width:1.5;"/>
   </g>
   <g id="patch_25">
    <path clip-path="url(#p0460851e0e)" d="M 1509.83664 133.182869 
L 1561.808923 133.182869 
L 1561.808923 83.063848 
L 1509.83664 83.063848 
L 1509.83664 133.182869 
z
" style="fill:#117566;stroke:#282828;stroke-linejoin:miter;stroke-width:1.5;"/>
   </g>
   <g id="patch_26">
    <path clip-path="url(#p0460851e0e)" d="M 1574.801994 133.182869 
L 1626.774277 133.182869 
L 1626.774277 83.063848 
L 1574.801994 83.063848 
L 1574.801994 133.182869 
z
" style="fill:#117566;stroke:#282828;stroke-linejoin:miter;stroke-width:1.5;"/>
   </g>
   <g id="line2d_7">
    <path clip-path="url(#p0460851e0e)" d="M 106.58499 484.026635 
L 106.58499 484.026635 
" style="fill:none;stroke:#282828;stroke-linecap:round;stroke-width:1.5;"/>
   </g>
   <g id="line2d_8">
    <path clip-path="url(#p0460851e0e)" d="M 106.58499 477.550744 
L 106.58499 472.208279 
" style="fill:none;stroke:#282828;stroke-linecap:round;stroke-width:1.5;"/>
   </g>
   <g id="line2d_9">
    <path clip-path="url(#p0460851e0e)" d="M 93.591919 484.026635 
L 119.57806 484.026635 
" style="fill:none;stroke:#282828;stroke-linecap:round;stroke-width:1.5;"/>
   </g>
   <g id="line2d_10">
    <path clip-path="url(#p0460851e0e)" d="M 93.591919 472.208279 
L 119.57806 472.208279 
" style="fill:none;stroke:#282828;stroke-linecap:round;stroke-width:1.5;"/>
   </g>
   <g id="line2d_11">
    <defs>
     <path d="M 0 3.535534 
L 2.12132 0 
L 0 -3.535534 
L -2.12132 0 
z
" id="mca9009164f" style="stroke:#282828;stroke-linejoin:miter;"/>
    </defs>
    <g clip-path="url(#p0460851e0e)">
     <use style="fill:#282828;stroke:#282828;stroke-linejoin:miter;" x="106.58499" xlink:href="#mca9009164f" y="497.362909"/>
     <use style="fill:#282828;stroke:#282828;stroke-linejoin:miter;" x="106.58499" xlink:href="#mca9009164f" y="497.362909"/>
     <use style="fill:#282828;stroke:#282828;stroke-linejoin:miter;" x="106.58499" xlink:href="#mca9009164f" y="497.362909"/>
     <use style="fill:#282828;stroke:#282828;stroke-linejoin:miter;" x="106.58499" xlink:href="#mca9009164f" y="497.362909"/>
     <use style="fill:#282828;stroke:#282828;stroke-linejoin:miter;" x="106.58499" xlink:href="#mca9009164f" y="497.362909"/>
     <use style="fill:#282828;stroke:#282828;stroke-linejoin:miter;" x="106.58499" xlink:href="#mca9009164f" y="497.362909"/>
     <use style="fill:#282828;stroke:#282828;stroke-linejoin:miter;" x="106.58499" xlink:href="#mca9009164f" y="497.362909"/>
     <use style="fill:#282828;stroke:#282828;stroke-linejoin:miter;" x="106.58499" xlink:href="#mca9009164f" y="497.362909"/>
     <use style="fill:#282828;stroke:#282828;stroke-linejoin:miter;" x="106.58499" xlink:href="#mca9009164f" y="497.362909"/>
     <use style="fill:#282828;stroke:#282828;stroke-linejoin:miter;" x="106.58499" xlink:href="#mca9009164f" y="497.362909"/>
     <use style="fill:#282828;stroke:#282828;stroke-linejoin:miter;" x="106.58499" xlink:href="#mca9009164f" y="497.362909"/>
     <use style="fill:#282828;stroke:#282828;stroke-linejoin:miter;" x="106.58499" xlink:href="#mca9009164f" y="497.362909"/>
     <use style="fill:#282828;stroke:#282828;stroke-linejoin:miter;" x="106.58499" xlink:href="#mca9009164f" y="497.362909"/>
     <use style="fill:#282828;stroke:#282828;stroke-linejoin:miter;" x="106.58499" xlink:href="#mca9009164f" y="497.362909"/>
     <use style="fill:#282828;stroke:#282828;stroke-linejoin:miter;" x="106.58499" xlink:href="#mca9009164f" y="497.362909"/>
     <use style="fill:#282828;stroke:#282828;stroke-linejoin:miter;" x="106.58499" xlink:href="#mca9009164f" y="497.362909"/>
     <use style="fill:#282828;stroke:#282828;stroke-linejoin:miter;" x="106.58499" xlink:href="#mca9009164f" y="497.362909"/>
     <use style="fill:#282828;stroke:#282828;stroke-linejoin:miter;" x="106.58499" xlink:href="#mca9009164f" y="497.362909"/>
     <use style="fill:#282828;stroke:#282828;stroke-linejoin:miter;" x="106.58499" xlink:href="#mca9009164f" y="497.362909"/>
     <use style="fill:#282828;stroke:#282828;stroke-linejoin:miter;" x="106.58499" xlink:href="#mca9009164f" y="497.362909"/>
     <use style="fill:#282828;stroke:#282828;stroke-linejoin:miter;" x="106.58499" xlink:href="#mca9009164f" y="497.362909"/>
     <use style="fill:#282828;stroke:#282828;stroke-linejoin:miter;" x="106.58499" xlink:href="#mca9009164f" y="497.362909"/>
     <use style="fill:#282828;stroke:#282828;stroke-linejoin:miter;" x="106.58499" xlink:href="#mca9009164f" y="497.362909"/>
     <use style="fill:#282828;stroke:#282828;stroke-linejoin:miter;" x="106.58499" xlink:href="#mca9009164f" y="497.362909"/>
     <use style="fill:#282828;stroke:#282828;stroke-linejoin:miter;" x="106.58499" xlink:href="#mca9009164f" y="497.362909"/>
     <use style="fill:#282828;stroke:#282828;stroke-linejoin:miter;" x="106.58499" xlink:href="#mca9009164f" y="497.362909"/>
     <use style="fill:#282828;stroke:#282828;stroke-linejoin:miter;" x="106.58499" xlink:href="#mca9009164f" y="497.362909"/>
     <use style="fill:#282828;stroke:#282828;stroke-linejoin:miter;" x="106.58499" xlink:href="#mca9009164f" y="497.362909"/>
     <use style="fill:#282828;stroke:#282828;stroke-linejoin:miter;" x="106.58499" xlink:href="#mca9009164f" y="497.362909"/>
     <use style="fill:#282828;stroke:#282828;stroke-linejoin:miter;" x="106.58499" xlink:href="#mca9009164f" y="497.362909"/>
     <use style="fill:#282828;stroke:#282828;stroke-linejoin:miter;" x="106.58499" xlink:href="#mca9009164f" y="497.362909"/>
     <use style="fill:#282828;stroke:#282828;stroke-linejoin:miter;" x="106.58499" xlink:href="#mca9009164f" y="497.362909"/>
     <use style="fill:#282828;stroke:#282828;stroke-linejoin:miter;" x="106.58499" xlink:href="#mca9009164f" y="497.362909"/>
     <use style="fill:#282828;stroke:#282828;stroke-linejoin:miter;" x="106.58499" xlink:href="#mca9009164f" y="497.362909"/>
     <use style="fill:#282828;stroke:#282828;stroke-linejoin:miter;" x="106.58499" xlink:href="#mca9009164f" y="497.362909"/>
     <use style="fill:#282828;stroke:#282828;stroke-linejoin:miter;" x="106.58499" xlink:href="#mca9009164f" y="497.362909"/>
    </g>
   </g>
   <g id="line2d_12">
    <path clip-path="url(#p0460851e0e)" d="M 171.550344 484.044833 
L 171.550344 484.044833 
" style="fill:none;stroke:#282828;stroke-linecap:round;stroke-width:1.5;"/>
   </g>
   <g id="line2d_13">
    <path clip-path="url(#p0460851e0e)" d="M 171.550344 477.356919 
L 171.550344 472.208279 
" style="fill:none;stroke:#282828;stroke-linecap:round;stroke-width:1.5;"/>
   </g>
   <g id="line2d_14">
    <path clip-path="url(#p0460851e0e)" d="M 158.557273 484.044833 
L 184.543415 484.044833 
" style="fill:none;stroke:#282828;stroke-linecap:round;stroke-width:1.5;"/>
   </g>
   <g id="line2d_15">
    <path clip-path="url(#p0460851e0e)" d="M 158.557273 472.208279 
L 184.543415 472.208279 
" style="fill:none;stroke:#282828;stroke-linecap:round;stroke-width:1.5;"/>
   </g>
   <g id="line2d_16">
    <g clip-path="url(#p0460851e0e)">
     <use style="fill:#282828;stroke:#282828;stroke-linejoin:miter;" x="171.550344" xlink:href="#mca9009164f" y="497.362909"/>
     <use style="fill:#282828;stroke:#282828;stroke-linejoin:miter;" x="171.550344" xlink:href="#mca9009164f" y="497.362909"/>
     <use style="fill:#282828;stroke:#282828;stroke-linejoin:miter;" x="171.550344" xlink:href="#mca9009164f" y="497.362909"/>
     <use style="fill:#282828;stroke:#282828;stroke-linejoin:miter;" x="171.550344" xlink:href="#mca9009164f" y="497.362909"/>
     <use style="fill:#282828;stroke:#282828;stroke-linejoin:miter;" x="171.550344" xlink:href="#mca9009164f" y="497.362909"/>
     <use style="fill:#282828;stroke:#282828;stroke-linejoin:miter;" x="171.550344" xlink:href="#mca9009164f" y="497.362909"/>
     <use style="fill:#282828;stroke:#282828;stroke-linejoin:miter;" x="171.550344" xlink:href="#mca9009164f" y="497.362909"/>
     <use style="fill:#282828;stroke:#282828;stroke-linejoin:miter;" x="171.550344" xlink:href="#mca9009164f" y="497.362909"/>
     <use style="fill:#282828;stroke:#282828;stroke-linejoin:miter;" x="171.550344" xlink:href="#mca9009164f" y="497.362909"/>
     <use style="fill:#282828;stroke:#282828;stroke-linejoin:miter;" x="171.550344" xlink:href="#mca9009164f" y="497.362909"/>
     <use style="fill:#282828;stroke:#282828;stroke-linejoin:miter;" x="171.550344" xlink:href="#mca9009164f" y="497.362909"/>
     <use style="fill:#282828;stroke:#282828;stroke-linejoin:miter;" x="171.550344" xlink:href="#mca9009164f" y="497.362909"/>
     <use style="fill:#282828;stroke:#282828;stroke-linejoin:miter;" x="171.550344" xlink:href="#mca9009164f" y="497.362909"/>
     <use style="fill:#282828;stroke:#282828;stroke-linejoin:miter;" x="171.550344" xlink:href="#mca9009164f" y="497.362909"/>
     <use style="fill:#282828;stroke:#282828;stroke-linejoin:miter;" x="171.550344" xlink:href="#mca9009164f" y="497.362909"/>
     <use style="fill:#282828;stroke:#282828;stroke-linejoin:miter;" x="171.550344" xlink:href="#mca9009164f" y="497.362909"/>
     <use style="fill:#282828;stroke:#282828;stroke-linejoin:miter;" x="171.550344" xlink:href="#mca9009164f" y="497.362909"/>
     <use style="fill:#282828;stroke:#282828;stroke-linejoin:miter;" x="171.550344" xlink:href="#mca9009164f" y="497.362909"/>
     <use style="fill:#282828;stroke:#282828;stroke-linejoin:miter;" x="171.550344" xlink:href="#mca9009164f" y="497.362909"/>
     <use style="fill:#282828;stroke:#282828;stroke-linejoin:miter;" x="171.550344" xlink:href="#mca9009164f" y="497.362909"/>
     <use style="fill:#282828;stroke:#282828;stroke-linejoin:miter;" x="171.550344" xlink:href="#mca9009164f" y="497.362909"/>
     <use style="fill:#282828;stroke:#282828;stroke-linejoin:miter;" x="171.550344" xlink:href="#mca9009164f" y="497.362909"/>
     <use style="fill:#282828;stroke:#282828;stroke-linejoin:miter;" x="171.550344" xlink:href="#mca9009164f" y="497.362909"/>
     <use style="fill:#282828;stroke:#282828;stroke-linejoin:miter;" x="171.550344" xlink:href="#mca9009164f" y="497.362909"/>
     <use style="fill:#282828;stroke:#282828;stroke-linejoin:miter;" x="171.550344" xlink:href="#mca9009164f" y="497.362909"/>
     <use style="fill:#282828;stroke:#282828;stroke-linejoin:miter;" x="171.550344" xlink:href="#mca9009164f" y="497.362909"/>
     <use style="fill:#282828;stroke:#282828;stroke-linejoin:miter;" x="171.550344" xlink:href="#mca9009164f" y="497.362909"/>
     <use style="fill:#282828;stroke:#282828;stroke-linejoin:miter;" x="171.550344" xlink:href="#mca9009164f" y="497.362909"/>
     <use style="fill:#282828;stroke:#282828;stroke-linejoin:miter;" x="171.550344" xlink:href="#mca9009164f" y="497.362909"/>
     <use style="fill:#282828;stroke:#282828;stroke-linejoin:miter;" x="171.550344" xlink:href="#mca9009164f" y="497.362909"/>
     <use style="fill:#282828;stroke:#282828;stroke-linejoin:miter;" x="171.550344" xlink:href="#mca9009164f" y="497.362909"/>
     <use style="fill:#282828;stroke:#282828;stroke-linejoin:miter;" x="171.550344" xlink:href="#mca9009164f" y="497.362909"/>
     <use style="fill:#282828;stroke:#282828;stroke-linejoin:miter;" x="171.550344" xlink:href="#mca9009164f" y="497.362909"/>
     <use style="fill:#282828;stroke:#282828;stroke-linejoin:miter;" x="171.550344" xlink:href="#mca9009164f" y="497.362909"/>
     <use style="fill:#282828;stroke:#282828;stroke-linejoin:miter;" x="171.550344" xlink:href="#mca9009164f" y="497.362909"/>
     <use style="fill:#282828;stroke:#282828;stroke-linejoin:miter;" x="171.550344" xlink:href="#mca9009164f" y="497.362909"/>
    </g>
   </g>
   <g id="line2d_17">
    <path clip-path="url(#p0460851e0e)" d="M 236.515698 478.332275 
L 236.515698 478.332275 
" style="fill:none;stroke:#282828;stroke-linecap:round;stroke-width:1.5;"/>
   </g>
   <g id="line2d_18">
    <path clip-path="url(#p0460851e0e)" d="M 236.515698 457.715387 
L 236.515698 456.508322 
" style="fill:none;stroke:#282828;stroke-linecap:round;stroke-width:1.5;"/>
   </g>
   <g id="line2d_19">
    <path clip-path="url(#p0460851e0e)" d="M 223.522627 478.332275 
L 249.508769 478.332275 
" style="fill:none;stroke:#282828;stroke-linecap:round;stroke-width:1.5;"/>
   </g>
   <g id="line2d_20">
    <path clip-path="url(#p0460851e0e)" d="M 223.522627 456.508322 
L 249.508769 456.508322 
" style="fill:none;stroke:#282828;stroke-linecap:round;stroke-width:1.5;"/>
   </g>
   <g id="line2d_21"/>
   <g id="line2d_22">
    <path clip-path="url(#p0460851e0e)" d="M 301.481052 478.496937 
L 301.481052 497.362909 
" style="fill:none;stroke:#282828;stroke-linecap:round;stroke-width:1.5;"/>
   </g>
   <g id="line2d_23">
    <path clip-path="url(#p0460851e0e)" d="M 301.481052 452.551395 
L 301.481052 448.720744 
" style="fill:none;stroke:#282828;stroke-linecap:round;stroke-width:1.5;"/>
   </g>
   <g id="line2d_24">
    <path clip-path="url(#p0460851e0e)" d="M 288.487981 497.362909 
L 314.474123 497.362909 
" style="fill:none;stroke:#282828;stroke-linecap:round;stroke-width:1.5;"/>
   </g>
   <g id="line2d_25">
    <path clip-path="url(#p0460851e0e)" d="M 288.487981 448.720744 
L 314.474123 448.720744 
" style="fill:none;stroke:#282828;stroke-linecap:round;stroke-width:1.5;"/>
   </g>
   <g id="line2d_26"/>
   <g id="line2d_27">
    <path clip-path="url(#p0460851e0e)" d="M 366.446406 464.092901 
L 366.446406 467.024543 
" style="fill:none;stroke:#282828;stroke-linecap:round;stroke-width:1.5;"/>
   </g>
   <g id="line2d_28">
    <path clip-path="url(#p0460851e0e)" d="M 366.446406 461.029119 
L 366.446406 459.100241 
" style="fill:none;stroke:#282828;stroke-linecap:round;stroke-width:1.5;"/>
   </g>
   <g id="line2d_29">
    <path clip-path="url(#p0460851e0e)" d="M 353.453335 467.024543 
L 379.439477 467.024543 
" style="fill:none;stroke:#282828;stroke-linecap:round;stroke-width:1.5;"/>
   </g>
   <g id="line2d_30">
    <path clip-path="url(#p0460851e0e)" d="M 353.453335 459.100241 
L 379.439477 459.100241 
" style="fill:none;stroke:#282828;stroke-linecap:round;stroke-width:1.5;"/>
   </g>
   <g id="line2d_31"/>
   <g id="line2d_32">
    <path clip-path="url(#p0460851e0e)" d="M 431.41176 468.883438 
L 431.41176 469.779917 
" style="fill:none;stroke:#282828;stroke-linecap:round;stroke-width:1.5;"/>
   </g>
   <g id="line2d_33">
    <path clip-path="url(#p0460851e0e)" d="M 431.41176 452.368069 
L 431.41176 444.605981 
" style="fill:none;stroke:#282828;stroke-linecap:round;stroke-width:1.5;"/>
   </g>
   <g id="line2d_34">
    <path clip-path="url(#p0460851e0e)" d="M 418.41869 469.779917 
L 444.404831 469.779917 
" style="fill:none;stroke:#282828;stroke-linecap:round;stroke-width:1.5;"/>
   </g>
   <g id="line2d_35">
    <path clip-path="url(#p0460851e0e)" d="M 418.41869 444.605981 
L 444.404831 444.605981 
" style="fill:none;stroke:#282828;stroke-linecap:round;stroke-width:1.5;"/>
   </g>
   <g id="line2d_36"/>
   <g id="line2d_37">
    <path clip-path="url(#p0460851e0e)" d="M 496.377115 468.883438 
L 496.377115 469.779917 
" style="fill:none;stroke:#282828;stroke-linecap:round;stroke-width:1.5;"/>
   </g>
   <g id="line2d_38">
    <path clip-path="url(#p0460851e0e)" d="M 496.377115 452.368069 
L 496.377115 444.605981 
" style="fill:none;stroke:#282828;stroke-linecap:round;stroke-width:1.5;"/>
   </g>
   <g id="line2d_39">
    <path clip-path="url(#p0460851e0e)" d="M 483.384044 469.779917 
L 509.370185 469.779917 
" style="fill:none;stroke:#282828;stroke-linecap:round;stroke-width:1.5;"/>
   </g>
   <g id="line2d_40">
    <path clip-path="url(#p0460851e0e)" d="M 483.384044 444.605981 
L 509.370185 444.605981 
" style="fill:none;stroke:#282828;stroke-linecap:round;stroke-width:1.5;"/>
   </g>
   <g id="line2d_41"/>
   <g id="line2d_42">
    <path clip-path="url(#p0460851e0e)" d="M 561.342469 476.803671 
L 561.342469 479.42708 
" style="fill:none;stroke:#282828;stroke-linecap:round;stroke-width:1.5;"/>
   </g>
   <g id="line2d_43">
    <path clip-path="url(#p0460851e0e)" d="M 561.342469 444.326812 
L 561.342469 435.337831 
" style="fill:none;stroke:#282828;stroke-linecap:round;stroke-width:1.5;"/>
   </g>
   <g id="line2d_44">
    <path clip-path="url(#p0460851e0e)" d="M 548.349398 479.42708 
L 574.33554 479.42708 
" style="fill:none;stroke:#282828;stroke-linecap:round;stroke-width:1.5;"/>
   </g>
   <g id="line2d_45">
    <path clip-path="url(#p0460851e0e)" d="M 548.349398 435.337831 
L 574.33554 435.337831 
" style="fill:none;stroke:#282828;stroke-linecap:round;stroke-width:1.5;"/>
   </g>
   <g id="line2d_46"/>
   <g id="line2d_47">
    <path clip-path="url(#p0460851e0e)" d="M 626.307823 465.104401 
L 626.307823 465.671995 
" style="fill:none;stroke:#282828;stroke-linecap:round;stroke-width:1.5;"/>
   </g>
   <g id="line2d_48">
    <path clip-path="url(#p0460851e0e)" d="M 626.307823 453.714402 
L 626.307823 446.152146 
" style="fill:none;stroke:#282828;stroke-linecap:round;stroke-width:1.5;"/>
   </g>
   <g id="line2d_49">
    <path clip-path="url(#p0460851e0e)" d="M 613.314752 465.671995 
L 639.300894 465.671995 
" style="fill:none;stroke:#282828;stroke-linecap:round;stroke-width:1.5;"/>
   </g>
   <g id="line2d_50">
    <path clip-path="url(#p0460851e0e)" d="M 613.314752 446.152146 
L 639.300894 446.152146 
" style="fill:none;stroke:#282828;stroke-linecap:round;stroke-width:1.5;"/>
   </g>
   <g id="line2d_51"/>
   <g id="line2d_52">
    <path clip-path="url(#p0460851e0e)" d="M 691.273177 459.243812 
L 691.273177 462.491881 
" style="fill:none;stroke:#282828;stroke-linecap:round;stroke-width:1.5;"/>
   </g>
   <g id="line2d_53">
    <path clip-path="url(#p0460851e0e)" d="M 691.273177 455.833971 
L 691.273177 453.679624 
" style="fill:none;stroke:#282828;stroke-linecap:round;stroke-width:1.5;"/>
   </g>
   <g id="line2d_54">
    <path clip-path="url(#p0460851e0e)" d="M 678.280106 462.491881 
L 704.266248 462.491881 
" style="fill:none;stroke:#282828;stroke-linecap:round;stroke-width:1.5;"/>
   </g>
   <g id="line2d_55">
    <path clip-path="url(#p0460851e0e)" d="M 678.280106 453.679624 
L 704.266248 453.679624 
" style="fill:none;stroke:#282828;stroke-linecap:round;stroke-width:1.5;"/>
   </g>
   <g id="line2d_56"/>
   <g id="line2d_57">
    <path clip-path="url(#p0460851e0e)" d="M 756.238531 463.309338 
L 756.238531 463.309338 
" style="fill:none;stroke:#282828;stroke-linecap:round;stroke-width:1.5;"/>
   </g>
   <g id="line2d_58">
    <path clip-path="url(#p0460851e0e)" d="M 756.238531 447.223037 
L 756.238531 445.753323 
" style="fill:none;stroke:#282828;stroke-linecap:round;stroke-width:1.5;"/>
   </g>
   <g id="line2d_59">
    <path clip-path="url(#p0460851e0e)" d="M 743.24546 463.309338 
L 769.231602 463.309338 
" style="fill:none;stroke:#282828;stroke-linecap:round;stroke-width:1.5;"/>
   </g>
   <g id="line2d_60">
    <path clip-path="url(#p0460851e0e)" d="M 743.24546 445.753323 
L 769.231602 445.753323 
" style="fill:none;stroke:#282828;stroke-linecap:round;stroke-width:1.5;"/>
   </g>
   <g id="line2d_61"/>
   <g id="line2d_62">
    <path clip-path="url(#p0460851e0e)" d="M 821.203885 460.20879 
L 821.203885 466.262553 
" style="fill:none;stroke:#282828;stroke-linecap:round;stroke-width:1.5;"/>
   </g>
   <g id="line2d_63">
    <path clip-path="url(#p0460851e0e)" d="M 821.203885 426.612595 
L 821.203885 424.580445 
" style="fill:none;stroke:#282828;stroke-linecap:round;stroke-width:1.5;"/>
   </g>
   <g id="line2d_64">
    <path clip-path="url(#p0460851e0e)" d="M 808.210815 466.262553 
L 834.196956 466.262553 
" style="fill:none;stroke:#282828;stroke-linecap:round;stroke-width:1.5;"/>
   </g>
   <g id="line2d_65">
    <path clip-path="url(#p0460851e0e)" d="M 808.210815 424.580445 
L 834.196956 424.580445 
" style="fill:none;stroke:#282828;stroke-linecap:round;stroke-width:1.5;"/>
   </g>
   <g id="line2d_66"/>
   <g id="line2d_67">
    <path clip-path="url(#p0460851e0e)" d="M 886.16924 414.657374 
L 886.16924 414.657374 
" style="fill:none;stroke:#282828;stroke-linecap:round;stroke-width:1.5;"/>
   </g>
   <g id="line2d_68">
    <path clip-path="url(#p0460851e0e)" d="M 886.16924 408.17933 
L 886.16924 405.563672 
" style="fill:none;stroke:#282828;stroke-linecap:round;stroke-width:1.5;"/>
   </g>
   <g id="line2d_69">
    <path clip-path="url(#p0460851e0e)" d="M 873.176169 414.657374 
L 899.16231 414.657374 
" style="fill:none;stroke:#282828;stroke-linecap:round;stroke-width:1.5;"/>
   </g>
   <g id="line2d_70">
    <path clip-path="url(#p0460851e0e)" d="M 873.176169 405.563672 
L 899.16231 405.563672 
" style="fill:none;stroke:#282828;stroke-linecap:round;stroke-width:1.5;"/>
   </g>
   <g id="line2d_71"/>
   <g id="line2d_72">
    <path clip-path="url(#p0460851e0e)" d="M 951.134594 412.535382 
L 951.134594 419.120591 
" style="fill:none;stroke:#282828;stroke-linecap:round;stroke-width:1.5;"/>
   </g>
   <g id="line2d_73">
    <path clip-path="url(#p0460851e0e)" d="M 951.134594 405.216969 
L 951.134594 400.377199 
" style="fill:none;stroke:#282828;stroke-linecap:round;stroke-width:1.5;"/>
   </g>
   <g id="line2d_74">
    <path clip-path="url(#p0460851e0e)" d="M 938.141523 419.120591 
L 964.127665 419.120591 
" style="fill:none;stroke:#282828;stroke-linecap:round;stroke-width:1.5;"/>
   </g>
   <g id="line2d_75">
    <path clip-path="url(#p0460851e0e)" d="M 938.141523 400.377199 
L 964.127665 400.377199 
" style="fill:none;stroke:#282828;stroke-linecap:round;stroke-width:1.5;"/>
   </g>
   <g id="line2d_76"/>
   <g id="line2d_77">
    <path clip-path="url(#p0460851e0e)" d="M 1016.099948 413.51139 
L 1016.099948 413.51139 
" style="fill:none;stroke:#282828;stroke-linecap:round;stroke-width:1.5;"/>
   </g>
   <g id="line2d_78">
    <path clip-path="url(#p0460851e0e)" d="M 1016.099948 405.196172 
L 1016.099948 403.637132 
" style="fill:none;stroke:#282828;stroke-linecap:round;stroke-width:1.5;"/>
   </g>
   <g id="line2d_79">
    <path clip-path="url(#p0460851e0e)" d="M 1003.106877 413.51139 
L 1029.093019 413.51139 
" style="fill:none;stroke:#282828;stroke-linecap:round;stroke-width:1.5;"/>
   </g>
   <g id="line2d_80">
    <path clip-path="url(#p0460851e0e)" d="M 1003.106877 403.637132 
L 1029.093019 403.637132 
" style="fill:none;stroke:#282828;stroke-linecap:round;stroke-width:1.5;"/>
   </g>
   <g id="line2d_81">
    <g clip-path="url(#p0460851e0e)">
     <use style="fill:#282828;stroke:#282828;stroke-linejoin:miter;" x="1016.099948" xlink:href="#mca9009164f" y="434.446847"/>
     <use style="fill:#282828;stroke:#282828;stroke-linejoin:miter;" x="1016.099948" xlink:href="#mca9009164f" y="434.446847"/>
     <use style="fill:#282828;stroke:#282828;stroke-linejoin:miter;" x="1016.099948" xlink:href="#mca9009164f" y="434.446847"/>
     <use style="fill:#282828;stroke:#282828;stroke-linejoin:miter;" x="1016.099948" xlink:href="#mca9009164f" y="434.446847"/>
     <use style="fill:#282828;stroke:#282828;stroke-linejoin:miter;" x="1016.099948" xlink:href="#mca9009164f" y="434.446847"/>
     <use style="fill:#282828;stroke:#282828;stroke-linejoin:miter;" x="1016.099948" xlink:href="#mca9009164f" y="434.446847"/>
     <use style="fill:#282828;stroke:#282828;stroke-linejoin:miter;" x="1016.099948" xlink:href="#mca9009164f" y="434.446847"/>
     <use style="fill:#282828;stroke:#282828;stroke-linejoin:miter;" x="1016.099948" xlink:href="#mca9009164f" y="434.446847"/>
     <use style="fill:#282828;stroke:#282828;stroke-linejoin:miter;" x="1016.099948" xlink:href="#mca9009164f" y="434.446847"/>
     <use style="fill:#282828;stroke:#282828;stroke-linejoin:miter;" x="1016.099948" xlink:href="#mca9009164f" y="434.446847"/>
     <use style="fill:#282828;stroke:#282828;stroke-linejoin:miter;" x="1016.099948" xlink:href="#mca9009164f" y="434.446847"/>
     <use style="fill:#282828;stroke:#282828;stroke-linejoin:miter;" x="1016.099948" xlink:href="#mca9009164f" y="434.446847"/>
     <use style="fill:#282828;stroke:#282828;stroke-linejoin:miter;" x="1016.099948" xlink:href="#mca9009164f" y="434.446847"/>
     <use style="fill:#282828;stroke:#282828;stroke-linejoin:miter;" x="1016.099948" xlink:href="#mca9009164f" y="434.446847"/>
     <use style="fill:#282828;stroke:#282828;stroke-linejoin:miter;" x="1016.099948" xlink:href="#mca9009164f" y="434.446847"/>
     <use style="fill:#282828;stroke:#282828;stroke-linejoin:miter;" x="1016.099948" xlink:href="#mca9009164f" y="434.446847"/>
     <use style="fill:#282828;stroke:#282828;stroke-linejoin:miter;" x="1016.099948" xlink:href="#mca9009164f" y="434.446847"/>
     <use style="fill:#282828;stroke:#282828;stroke-linejoin:miter;" x="1016.099948" xlink:href="#mca9009164f" y="434.446847"/>
     <use style="fill:#282828;stroke:#282828;stroke-linejoin:miter;" x="1016.099948" xlink:href="#mca9009164f" y="434.446847"/>
     <use style="fill:#282828;stroke:#282828;stroke-linejoin:miter;" x="1016.099948" xlink:href="#mca9009164f" y="434.446847"/>
     <use style="fill:#282828;stroke:#282828;stroke-linejoin:miter;" x="1016.099948" xlink:href="#mca9009164f" y="434.446847"/>
     <use style="fill:#282828;stroke:#282828;stroke-linejoin:miter;" x="1016.099948" xlink:href="#mca9009164f" y="434.446847"/>
     <use style="fill:#282828;stroke:#282828;stroke-linejoin:miter;" x="1016.099948" xlink:href="#mca9009164f" y="434.446847"/>
     <use style="fill:#282828;stroke:#282828;stroke-linejoin:miter;" x="1016.099948" xlink:href="#mca9009164f" y="434.446847"/>
     <use style="fill:#282828;stroke:#282828;stroke-linejoin:miter;" x="1016.099948" xlink:href="#mca9009164f" y="434.446847"/>
     <use style="fill:#282828;stroke:#282828;stroke-linejoin:miter;" x="1016.099948" xlink:href="#mca9009164f" y="434.446847"/>
     <use style="fill:#282828;stroke:#282828;stroke-linejoin:miter;" x="1016.099948" xlink:href="#mca9009164f" y="434.446847"/>
     <use style="fill:#282828;stroke:#282828;stroke-linejoin:miter;" x="1016.099948" xlink:href="#mca9009164f" y="434.446847"/>
     <use style="fill:#282828;stroke:#282828;stroke-linejoin:miter;" x="1016.099948" xlink:href="#mca9009164f" y="434.446847"/>
     <use style="fill:#282828;stroke:#282828;stroke-linejoin:miter;" x="1016.099948" xlink:href="#mca9009164f" y="434.446847"/>
     <use style="fill:#282828;stroke:#282828;stroke-linejoin:miter;" x="1016.099948" xlink:href="#mca9009164f" y="434.446847"/>
     <use style="fill:#282828;stroke:#282828;stroke-linejoin:miter;" x="1016.099948" xlink:href="#mca9009164f" y="434.446847"/>
     <use style="fill:#282828;stroke:#282828;stroke-linejoin:miter;" x="1016.099948" xlink:href="#mca9009164f" y="434.446847"/>
     <use style="fill:#282828;stroke:#282828;stroke-linejoin:miter;" x="1016.099948" xlink:href="#mca9009164f" y="434.446847"/>
     <use style="fill:#282828;stroke:#282828;stroke-linejoin:miter;" x="1016.099948" xlink:href="#mca9009164f" y="434.446847"/>
     <use style="fill:#282828;stroke:#282828;stroke-linejoin:miter;" x="1016.099948" xlink:href="#mca9009164f" y="434.446847"/>
    </g>
   </g>
   <g id="line2d_82">
    <path clip-path="url(#p0460851e0e)" d="M 1081.065302 410.992488 
L 1081.065302 411.104481 
" style="fill:none;stroke:#282828;stroke-linecap:round;stroke-width:1.5;"/>
   </g>
   <g id="line2d_83">
    <path clip-path="url(#p0460851e0e)" d="M 1081.065302 371.328449 
L 1081.065302 371.328449 
" style="fill:none;stroke:#282828;stroke-linecap:round;stroke-width:1.5;"/>
   </g>
   <g id="line2d_84">
    <path clip-path="url(#p0460851e0e)" d="M 1068.072231 411.104481 
L 1094.058373 411.104481 
" style="fill:none;stroke:#282828;stroke-linecap:round;stroke-width:1.5;"/>
   </g>
   <g id="line2d_85">
    <path clip-path="url(#p0460851e0e)" d="M 1068.072231 371.328449 
L 1094.058373 371.328449 
" style="fill:none;stroke:#282828;stroke-linecap:round;stroke-width:1.5;"/>
   </g>
   <g id="line2d_86"/>
   <g id="line2d_87">
    <path clip-path="url(#p0460851e0e)" d="M 1146.030656 385.915426 
L 1146.030656 386.152776 
" style="fill:none;stroke:#282828;stroke-linecap:round;stroke-width:1.5;"/>
   </g>
   <g id="line2d_88">
    <path clip-path="url(#p0460851e0e)" d="M 1146.030656 375.363813 
L 1146.030656 375.363813 
" style="fill:none;stroke:#282828;stroke-linecap:round;stroke-width:1.5;"/>
   </g>
   <g id="line2d_89">
    <path clip-path="url(#p0460851e0e)" d="M 1133.037585 386.152776 
L 1159.023727 386.152776 
" style="fill:none;stroke:#282828;stroke-linecap:round;stroke-width:1.5;"/>
   </g>
   <g id="line2d_90">
    <path clip-path="url(#p0460851e0e)" d="M 1133.037585 375.363813 
L 1159.023727 375.363813 
" style="fill:none;stroke:#282828;stroke-linecap:round;stroke-width:1.5;"/>
   </g>
   <g id="line2d_91">
    <g clip-path="url(#p0460851e0e)">
     <use style="fill:#282828;stroke:#282828;stroke-linejoin:miter;" x="1146.030656" xlink:href="#mca9009164f" y="358.062522"/>
     <use style="fill:#282828;stroke:#282828;stroke-linejoin:miter;" x="1146.030656" xlink:href="#mca9009164f" y="358.062522"/>
     <use style="fill:#282828;stroke:#282828;stroke-linejoin:miter;" x="1146.030656" xlink:href="#mca9009164f" y="358.062522"/>
     <use style="fill:#282828;stroke:#282828;stroke-linejoin:miter;" x="1146.030656" xlink:href="#mca9009164f" y="358.062522"/>
     <use style="fill:#282828;stroke:#282828;stroke-linejoin:miter;" x="1146.030656" xlink:href="#mca9009164f" y="358.062522"/>
     <use style="fill:#282828;stroke:#282828;stroke-linejoin:miter;" x="1146.030656" xlink:href="#mca9009164f" y="358.062522"/>
     <use style="fill:#282828;stroke:#282828;stroke-linejoin:miter;" x="1146.030656" xlink:href="#mca9009164f" y="358.062522"/>
     <use style="fill:#282828;stroke:#282828;stroke-linejoin:miter;" x="1146.030656" xlink:href="#mca9009164f" y="358.062522"/>
     <use style="fill:#282828;stroke:#282828;stroke-linejoin:miter;" x="1146.030656" xlink:href="#mca9009164f" y="358.062522"/>
     <use style="fill:#282828;stroke:#282828;stroke-linejoin:miter;" x="1146.030656" xlink:href="#mca9009164f" y="358.062522"/>
     <use style="fill:#282828;stroke:#282828;stroke-linejoin:miter;" x="1146.030656" xlink:href="#mca9009164f" y="358.062522"/>
     <use style="fill:#282828;stroke:#282828;stroke-linejoin:miter;" x="1146.030656" xlink:href="#mca9009164f" y="358.062522"/>
     <use style="fill:#282828;stroke:#282828;stroke-linejoin:miter;" x="1146.030656" xlink:href="#mca9009164f" y="358.062522"/>
     <use style="fill:#282828;stroke:#282828;stroke-linejoin:miter;" x="1146.030656" xlink:href="#mca9009164f" y="358.062522"/>
     <use style="fill:#282828;stroke:#282828;stroke-linejoin:miter;" x="1146.030656" xlink:href="#mca9009164f" y="358.062522"/>
     <use style="fill:#282828;stroke:#282828;stroke-linejoin:miter;" x="1146.030656" xlink:href="#mca9009164f" y="358.062522"/>
     <use style="fill:#282828;stroke:#282828;stroke-linejoin:miter;" x="1146.030656" xlink:href="#mca9009164f" y="358.062522"/>
     <use style="fill:#282828;stroke:#282828;stroke-linejoin:miter;" x="1146.030656" xlink:href="#mca9009164f" y="358.062522"/>
     <use style="fill:#282828;stroke:#282828;stroke-linejoin:miter;" x="1146.030656" xlink:href="#mca9009164f" y="358.062522"/>
     <use style="fill:#282828;stroke:#282828;stroke-linejoin:miter;" x="1146.030656" xlink:href="#mca9009164f" y="358.062522"/>
     <use style="fill:#282828;stroke:#282828;stroke-linejoin:miter;" x="1146.030656" xlink:href="#mca9009164f" y="358.062522"/>
     <use style="fill:#282828;stroke:#282828;stroke-linejoin:miter;" x="1146.030656" xlink:href="#mca9009164f" y="358.062522"/>
     <use style="fill:#282828;stroke:#282828;stroke-linejoin:miter;" x="1146.030656" xlink:href="#mca9009164f" y="358.062522"/>
     <use style="fill:#282828;stroke:#282828;stroke-linejoin:miter;" x="1146.030656" xlink:href="#mca9009164f" y="358.062522"/>
     <use style="fill:#282828;stroke:#282828;stroke-linejoin:miter;" x="1146.030656" xlink:href="#mca9009164f" y="358.062522"/>
     <use style="fill:#282828;stroke:#282828;stroke-linejoin:miter;" x="1146.030656" xlink:href="#mca9009164f" y="358.062522"/>
     <use style="fill:#282828;stroke:#282828;stroke-linejoin:miter;" x="1146.030656" xlink:href="#mca9009164f" y="358.062522"/>
     <use style="fill:#282828;stroke:#282828;stroke-linejoin:miter;" x="1146.030656" xlink:href="#mca9009164f" y="358.062522"/>
     <use style="fill:#282828;stroke:#282828;stroke-linejoin:miter;" x="1146.030656" xlink:href="#mca9009164f" y="358.062522"/>
     <use style="fill:#282828;stroke:#282828;stroke-linejoin:miter;" x="1146.030656" xlink:href="#mca9009164f" y="358.062522"/>
     <use style="fill:#282828;stroke:#282828;stroke-linejoin:miter;" x="1146.030656" xlink:href="#mca9009164f" y="358.062522"/>
     <use style="fill:#282828;stroke:#282828;stroke-linejoin:miter;" x="1146.030656" xlink:href="#mca9009164f" y="358.062522"/>
     <use style="fill:#282828;stroke:#282828;stroke-linejoin:miter;" x="1146.030656" xlink:href="#mca9009164f" y="358.062522"/>
     <use style="fill:#282828;stroke:#282828;stroke-linejoin:miter;" x="1146.030656" xlink:href="#mca9009164f" y="358.062522"/>
     <use style="fill:#282828;stroke:#282828;stroke-linejoin:miter;" x="1146.030656" xlink:href="#mca9009164f" y="358.062522"/>
     <use style="fill:#282828;stroke:#282828;stroke-linejoin:miter;" x="1146.030656" xlink:href="#mca9009164f" y="358.062522"/>
    </g>
   </g>
   <g id="line2d_92">
    <path clip-path="url(#p0460851e0e)" d="M 1210.99601 371.761363 
L 1210.99601 373.060106 
" style="fill:none;stroke:#282828;stroke-linecap:round;stroke-width:1.5;"/>
   </g>
   <g id="line2d_93">
    <path clip-path="url(#p0460851e0e)" d="M 1210.99601 370.456957 
L 1210.99601 370.456957 
" style="fill:none;stroke:#282828;stroke-linecap:round;stroke-width:1.5;"/>
   </g>
   <g id="line2d_94">
    <path clip-path="url(#p0460851e0e)" d="M 1198.00294 373.060106 
L 1223.989081 373.060106 
" style="fill:none;stroke:#282828;stroke-linecap:round;stroke-width:1.5;"/>
   </g>
   <g id="line2d_95">
    <path clip-path="url(#p0460851e0e)" d="M 1198.00294 370.456957 
L 1223.989081 370.456957 
" style="fill:none;stroke:#282828;stroke-linecap:round;stroke-width:1.5;"/>
   </g>
   <g id="line2d_96">
    <g clip-path="url(#p0460851e0e)">
     <use style="fill:#282828;stroke:#282828;stroke-linejoin:miter;" x="1210.99601" xlink:href="#mca9009164f" y="367.842479"/>
     <use style="fill:#282828;stroke:#282828;stroke-linejoin:miter;" x="1210.99601" xlink:href="#mca9009164f" y="367.842479"/>
     <use style="fill:#282828;stroke:#282828;stroke-linejoin:miter;" x="1210.99601" xlink:href="#mca9009164f" y="367.842479"/>
     <use style="fill:#282828;stroke:#282828;stroke-linejoin:miter;" x="1210.99601" xlink:href="#mca9009164f" y="367.842479"/>
     <use style="fill:#282828;stroke:#282828;stroke-linejoin:miter;" x="1210.99601" xlink:href="#mca9009164f" y="367.842479"/>
     <use style="fill:#282828;stroke:#282828;stroke-linejoin:miter;" x="1210.99601" xlink:href="#mca9009164f" y="367.842479"/>
     <use style="fill:#282828;stroke:#282828;stroke-linejoin:miter;" x="1210.99601" xlink:href="#mca9009164f" y="367.842479"/>
     <use style="fill:#282828;stroke:#282828;stroke-linejoin:miter;" x="1210.99601" xlink:href="#mca9009164f" y="367.842479"/>
     <use style="fill:#282828;stroke:#282828;stroke-linejoin:miter;" x="1210.99601" xlink:href="#mca9009164f" y="367.842479"/>
     <use style="fill:#282828;stroke:#282828;stroke-linejoin:miter;" x="1210.99601" xlink:href="#mca9009164f" y="367.842479"/>
     <use style="fill:#282828;stroke:#282828;stroke-linejoin:miter;" x="1210.99601" xlink:href="#mca9009164f" y="367.842479"/>
     <use style="fill:#282828;stroke:#282828;stroke-linejoin:miter;" x="1210.99601" xlink:href="#mca9009164f" y="367.842479"/>
     <use style="fill:#282828;stroke:#282828;stroke-linejoin:miter;" x="1210.99601" xlink:href="#mca9009164f" y="367.842479"/>
     <use style="fill:#282828;stroke:#282828;stroke-linejoin:miter;" x="1210.99601" xlink:href="#mca9009164f" y="367.842479"/>
     <use style="fill:#282828;stroke:#282828;stroke-linejoin:miter;" x="1210.99601" xlink:href="#mca9009164f" y="367.842479"/>
     <use style="fill:#282828;stroke:#282828;stroke-linejoin:miter;" x="1210.99601" xlink:href="#mca9009164f" y="367.842479"/>
     <use style="fill:#282828;stroke:#282828;stroke-linejoin:miter;" x="1210.99601" xlink:href="#mca9009164f" y="367.842479"/>
     <use style="fill:#282828;stroke:#282828;stroke-linejoin:miter;" x="1210.99601" xlink:href="#mca9009164f" y="367.842479"/>
     <use style="fill:#282828;stroke:#282828;stroke-linejoin:miter;" x="1210.99601" xlink:href="#mca9009164f" y="367.842479"/>
     <use style="fill:#282828;stroke:#282828;stroke-linejoin:miter;" x="1210.99601" xlink:href="#mca9009164f" y="367.842479"/>
     <use style="fill:#282828;stroke:#282828;stroke-linejoin:miter;" x="1210.99601" xlink:href="#mca9009164f" y="367.842479"/>
     <use style="fill:#282828;stroke:#282828;stroke-linejoin:miter;" x="1210.99601" xlink:href="#mca9009164f" y="367.842479"/>
     <use style="fill:#282828;stroke:#282828;stroke-linejoin:miter;" x="1210.99601" xlink:href="#mca9009164f" y="367.842479"/>
     <use style="fill:#282828;stroke:#282828;stroke-linejoin:miter;" x="1210.99601" xlink:href="#mca9009164f" y="367.842479"/>
     <use style="fill:#282828;stroke:#282828;stroke-linejoin:miter;" x="1210.99601" xlink:href="#mca9009164f" y="367.842479"/>
     <use style="fill:#282828;stroke:#282828;stroke-linejoin:miter;" x="1210.99601" xlink:href="#mca9009164f" y="367.842479"/>
     <use style="fill:#282828;stroke:#282828;stroke-linejoin:miter;" x="1210.99601" xlink:href="#mca9009164f" y="367.842479"/>
     <use style="fill:#282828;stroke:#282828;stroke-linejoin:miter;" x="1210.99601" xlink:href="#mca9009164f" y="367.842479"/>
     <use style="fill:#282828;stroke:#282828;stroke-linejoin:miter;" x="1210.99601" xlink:href="#mca9009164f" y="367.842479"/>
     <use style="fill:#282828;stroke:#282828;stroke-linejoin:miter;" x="1210.99601" xlink:href="#mca9009164f" y="367.842479"/>
     <use style="fill:#282828;stroke:#282828;stroke-linejoin:miter;" x="1210.99601" xlink:href="#mca9009164f" y="367.842479"/>
     <use style="fill:#282828;stroke:#282828;stroke-linejoin:miter;" x="1210.99601" xlink:href="#mca9009164f" y="367.842479"/>
     <use style="fill:#282828;stroke:#282828;stroke-linejoin:miter;" x="1210.99601" xlink:href="#mca9009164f" y="367.842479"/>
     <use style="fill:#282828;stroke:#282828;stroke-linejoin:miter;" x="1210.99601" xlink:href="#mca9009164f" y="367.842479"/>
     <use style="fill:#282828;stroke:#282828;stroke-linejoin:miter;" x="1210.99601" xlink:href="#mca9009164f" y="367.842479"/>
     <use style="fill:#282828;stroke:#282828;stroke-linejoin:miter;" x="1210.99601" xlink:href="#mca9009164f" y="367.842479"/>
    </g>
   </g>
   <g id="line2d_97">
    <path clip-path="url(#p0460851e0e)" d="M 1275.961365 376.528232 
L 1275.961365 385.934278 
" style="fill:none;stroke:#282828;stroke-linecap:round;stroke-width:1.5;"/>
   </g>
   <g id="line2d_98">
    <path clip-path="url(#p0460851e0e)" d="M 1275.961365 365.459306 
L 1275.961365 357.776917 
" style="fill:none;stroke:#282828;stroke-linecap:round;stroke-width:1.5;"/>
   </g>
   <g id="line2d_99">
    <path clip-path="url(#p0460851e0e)" d="M 1262.968294 385.934278 
L 1288.954435 385.934278 
" style="fill:none;stroke:#282828;stroke-linecap:round;stroke-width:1.5;"/>
   </g>
   <g id="line2d_100">
    <path clip-path="url(#p0460851e0e)" d="M 1262.968294 357.776917 
L 1288.954435 357.776917 
" style="fill:none;stroke:#282828;stroke-linecap:round;stroke-width:1.5;"/>
   </g>
   <g id="line2d_101"/>
   <g id="line2d_102">
    <path clip-path="url(#p0460851e0e)" d="M 1340.926719 373.916396 
L 1340.926719 373.916396 
" style="fill:none;stroke:#282828;stroke-linecap:round;stroke-width:1.5;"/>
   </g>
   <g id="line2d_103">
    <path clip-path="url(#p0460851e0e)" d="M 1340.926719 359.448095 
L 1340.926719 356.15683 
" style="fill:none;stroke:#282828;stroke-linecap:round;stroke-width:1.5;"/>
   </g>
   <g id="line2d_104">
    <path clip-path="url(#p0460851e0e)" d="M 1327.933648 373.916396 
L 1353.91979 373.916396 
" style="fill:none;stroke:#282828;stroke-linecap:round;stroke-width:1.5;"/>
   </g>
   <g id="line2d_105">
    <path clip-path="url(#p0460851e0e)" d="M 1327.933648 356.15683 
L 1353.91979 356.15683 
" style="fill:none;stroke:#282828;stroke-linecap:round;stroke-width:1.5;"/>
   </g>
   <g id="line2d_106"/>
   <g id="line2d_107">
    <path clip-path="url(#p0460851e0e)" d="M 1405.892073 376.765708 
L 1405.892073 386.152776 
" style="fill:none;stroke:#282828;stroke-linecap:round;stroke-width:1.5;"/>
   </g>
   <g id="line2d_108">
    <path clip-path="url(#p0460851e0e)" d="M 1405.892073 359.24371 
L 1405.892073 358.062522 
" style="fill:none;stroke:#282828;stroke-linecap:round;stroke-width:1.5;"/>
   </g>
   <g id="line2d_109">
    <path clip-path="url(#p0460851e0e)" d="M 1392.899002 386.152776 
L 1418.885144 386.152776 
" style="fill:none;stroke:#282828;stroke-linecap:round;stroke-width:1.5;"/>
   </g>
   <g id="line2d_110">
    <path clip-path="url(#p0460851e0e)" d="M 1392.899002 358.062522 
L 1418.885144 358.062522 
" style="fill:none;stroke:#282828;stroke-linecap:round;stroke-width:1.5;"/>
   </g>
   <g id="line2d_111"/>
   <g id="line2d_112">
    <path clip-path="url(#p0460851e0e)" d="M 1470.857427 449.285121 
L 1470.857427 456.765112 
" style="fill:none;stroke:#282828;stroke-linecap:round;stroke-width:1.5;"/>
   </g>
   <g id="line2d_113">
    <path clip-path="url(#p0460851e0e)" d="M 1470.857427 221.668684 
L 1470.857427 208.527071 
" style="fill:none;stroke:#282828;stroke-linecap:round;stroke-width:1.5;"/>
   </g>
   <g id="line2d_114">
    <path clip-path="url(#p0460851e0e)" d="M 1457.864356 456.765112 
L 1483.850498 456.765112 
" style="fill:none;stroke:#282828;stroke-linecap:round;stroke-width:1.5;"/>
   </g>
   <g id="line2d_115">
    <path clip-path="url(#p0460851e0e)" d="M 1457.864356 208.527071 
L 1483.850498 208.527071 
" style="fill:none;stroke:#282828;stroke-linecap:round;stroke-width:1.5;"/>
   </g>
   <g id="line2d_116"/>
   <g id="line2d_117">
    <path clip-path="url(#p0460851e0e)" d="M 1535.822781 133.182869 
L 1535.822781 158.720816 
" style="fill:none;stroke:#282828;stroke-linecap:round;stroke-width:1.5;"/>
   </g>
   <g id="line2d_118">
    <path clip-path="url(#p0460851e0e)" d="M 1535.822781 83.063848 
L 1535.822781 30.541091 
" style="fill:none;stroke:#282828;stroke-linecap:round;stroke-width:1.5;"/>
   </g>
   <g id="line2d_119">
    <path clip-path="url(#p0460851e0e)" d="M 1522.82971 158.720816 
L 1548.815852 158.720816 
" style="fill:none;stroke:#282828;stroke-linecap:round;stroke-width:1.5;"/>
   </g>
   <g id="line2d_120">
    <path clip-path="url(#p0460851e0e)" d="M 1522.82971 30.541091 
L 1548.815852 30.541091 
" style="fill:none;stroke:#282828;stroke-linecap:round;stroke-width:1.5;"/>
   </g>
   <g id="line2d_121"/>
   <g id="line2d_122">
    <path clip-path="url(#p0460851e0e)" d="M 1600.788135 133.182869 
L 1600.788135 158.720816 
" style="fill:none;stroke:#282828;stroke-linecap:round;stroke-width:1.5;"/>
   </g>
   <g id="line2d_123">
    <path clip-path="url(#p0460851e0e)" d="M 1600.788135 83.063848 
L 1600.788135 30.541091 
" style="fill:none;stroke:#282828;stroke-linecap:round;stroke-width:1.5;"/>
   </g>
   <g id="line2d_124">
    <path clip-path="url(#p0460851e0e)" d="M 1587.795065 158.720816 
L 1613.781206 158.720816 
" style="fill:none;stroke:#282828;stroke-linecap:round;stroke-width:1.5;"/>
   </g>
   <g id="line2d_125">
    <path clip-path="url(#p0460851e0e)" d="M 1587.795065 30.541091 
L 1613.781206 30.541091 
" style="fill:none;stroke:#282828;stroke-linecap:round;stroke-width:1.5;"/>
   </g>
   <g id="line2d_126"/>
   <g id="line2d_127">
    <path clip-path="url(#p0460851e0e)" d="M 80.598848 479.456388 
L 132.571131 479.456388 
" style="fill:none;stroke:#282828;stroke-linecap:round;stroke-width:1.5;"/>
   </g>
   <g id="line2d_128">
    <path clip-path="url(#p0460851e0e)" d="M 145.564202 479.339303 
L 197.536485 479.339303 
" style="fill:none;stroke:#282828;stroke-linecap:round;stroke-width:1.5;"/>
   </g>
   <g id="line2d_129">
    <path clip-path="url(#p0460851e0e)" d="M 210.529556 468.225008 
L 262.50184 468.225008 
" style="fill:none;stroke:#282828;stroke-linecap:round;stroke-width:1.5;"/>
   </g>
   <g id="line2d_130">
    <path clip-path="url(#p0460851e0e)" d="M 275.49491 463.018279 
L 327.467194 463.018279 
" style="fill:none;stroke:#282828;stroke-linecap:round;stroke-width:1.5;"/>
   </g>
   <g id="line2d_131">
    <path clip-path="url(#p0460851e0e)" d="M 340.460265 462.393883 
L 392.432548 462.393883 
" style="fill:none;stroke:#282828;stroke-linecap:round;stroke-width:1.5;"/>
   </g>
   <g id="line2d_132">
    <path clip-path="url(#p0460851e0e)" d="M 405.425619 461.770022 
L 457.397902 461.770022 
" style="fill:none;stroke:#282828;stroke-linecap:round;stroke-width:1.5;"/>
   </g>
   <g id="line2d_133">
    <path clip-path="url(#p0460851e0e)" d="M 470.390973 461.770022 
L 522.363256 461.770022 
" style="fill:none;stroke:#282828;stroke-linecap:round;stroke-width:1.5;"/>
   </g>
   <g id="line2d_134">
    <path clip-path="url(#p0460851e0e)" d="M 535.356327 461.62617 
L 587.32861 461.62617 
" style="fill:none;stroke:#282828;stroke-linecap:round;stroke-width:1.5;"/>
   </g>
   <g id="line2d_135">
    <path clip-path="url(#p0460851e0e)" d="M 600.321681 460.575179 
L 652.293965 460.575179 
" style="fill:none;stroke:#282828;stroke-linecap:round;stroke-width:1.5;"/>
   </g>
   <g id="line2d_136">
    <path clip-path="url(#p0460851e0e)" d="M 665.287035 457.356605 
L 717.259319 457.356605 
" style="fill:none;stroke:#282828;stroke-linecap:round;stroke-width:1.5;"/>
   </g>
   <g id="line2d_137">
    <path clip-path="url(#p0460851e0e)" d="M 730.25239 455.51114 
L 782.224673 455.51114 
" style="fill:none;stroke:#282828;stroke-linecap:round;stroke-width:1.5;"/>
   </g>
   <g id="line2d_138">
    <path clip-path="url(#p0460851e0e)" d="M 795.217744 442.740424 
L 847.190027 442.740424 
" style="fill:none;stroke:#282828;stroke-linecap:round;stroke-width:1.5;"/>
   </g>
   <g id="line2d_139">
    <path clip-path="url(#p0460851e0e)" d="M 860.183098 411.854295 
L 912.155381 411.854295 
" style="fill:none;stroke:#282828;stroke-linecap:round;stroke-width:1.5;"/>
   </g>
   <g id="line2d_140">
    <path clip-path="url(#p0460851e0e)" d="M 925.148452 408.585269 
L 977.120735 408.585269 
" style="fill:none;stroke:#282828;stroke-linecap:round;stroke-width:1.5;"/>
   </g>
   <g id="line2d_141">
    <path clip-path="url(#p0460851e0e)" d="M 990.113806 406.124378 
L 1042.08609 406.124378 
" style="fill:none;stroke:#282828;stroke-linecap:round;stroke-width:1.5;"/>
   </g>
   <g id="line2d_142">
    <path clip-path="url(#p0460851e0e)" d="M 1055.07916 391.141803 
L 1107.051444 391.141803 
" style="fill:none;stroke:#282828;stroke-linecap:round;stroke-width:1.5;"/>
   </g>
   <g id="line2d_143">
    <path clip-path="url(#p0460851e0e)" d="M 1120.044515 383.483609 
L 1172.016798 383.483609 
" style="fill:none;stroke:#282828;stroke-linecap:round;stroke-width:1.5;"/>
   </g>
   <g id="line2d_144">
    <path clip-path="url(#p0460851e0e)" d="M 1185.009869 371.328449 
L 1236.982152 371.328449 
" style="fill:none;stroke:#282828;stroke-linecap:round;stroke-width:1.5;"/>
   </g>
   <g id="line2d_145">
    <path clip-path="url(#p0460851e0e)" d="M 1249.975223 370.706493 
L 1301.947506 370.706493 
" style="fill:none;stroke:#282828;stroke-linecap:round;stroke-width:1.5;"/>
   </g>
   <g id="line2d_146">
    <path clip-path="url(#p0460851e0e)" d="M 1314.940577 367.23079 
L 1366.91286 367.23079 
" style="fill:none;stroke:#282828;stroke-linecap:round;stroke-width:1.5;"/>
   </g>
   <g id="line2d_147">
    <path clip-path="url(#p0460851e0e)" d="M 1379.905931 366.637062 
L 1431.878215 366.637062 
" style="fill:none;stroke:#282828;stroke-linecap:round;stroke-width:1.5;"/>
   </g>
   <g id="line2d_148">
    <path clip-path="url(#p0460851e0e)" d="M 1444.871285 336.420506 
L 1496.843569 336.420506 
" style="fill:none;stroke:#282828;stroke-linecap:round;stroke-width:1.5;"/>
   </g>
   <g id="line2d_149">
    <path clip-path="url(#p0460851e0e)" d="M 1509.83664 112.620827 
L 1561.808923 112.620827 
" style="fill:none;stroke:#282828;stroke-linecap:round;stroke-width:1.5;"/>
   </g>
   <g id="line2d_150">
    <path clip-path="url(#p0460851e0e)" d="M 1574.801994 112.620827 
L 1626.774277 112.620827 
" style="fill:none;stroke:#282828;stroke-linecap:round;stroke-width:1.5;"/>
   </g>
   <g id="patch_27">
    <path d="M 74.102312 520.704 
L 74.102312 7.2 
" style="fill:none;stroke:#cccccc;stroke-linecap:square;stroke-linejoin:miter;stroke-width:1.25;"/>
   </g>
   <g id="patch_28">
    <path d="M 74.102312 520.704 
L 1633.270812 520.704 
" style="fill:none;stroke:#cccccc;stroke-linecap:square;stroke-linejoin:miter;stroke-width:1.25;"/>
   </g>
  </g>
 </g>
 <defs>
  <clipPath id="p0460851e0e">
   <rect height="513.504" width="1559.1685" x="74.102312" y="7.2"/>
  </clipPath>
 </defs>
</svg>
